<svg xmlns="http://www.w3.org/2000/svg" width="47.265" height="65.674" viewBox="0 0 47.265 65.674">
  <g id="boy" transform="translate(-27.821 -0.001)">
    <g id="Group_49" data-name="Group 49" transform="translate(27.821 8.002)">
      <rect id="Rectangle_86" data-name="Rectangle 86" width="9.726" height="10.893" transform="translate(18.769 41.042)" fill="#fdcc9b"/>
      <path id="Path_333" data-name="Path 333" d="M84.551,149.513a16.317,16.317,0,0,0,9.726,2V148.23H84.551Z" transform="translate(-65.781 -107.188)" fill="#fcbc85"/>
      <ellipse id="Ellipse_41" data-name="Ellipse 41" cx="4.746" cy="5.414" rx="4.746" ry="5.414" transform="translate(0 18.738)" fill="#fcbc85"/>
      <ellipse id="Ellipse_42" data-name="Ellipse 42" cx="4.746" cy="5.414" rx="4.746" ry="5.414" transform="translate(37.774 18.738)" fill="#fcbc85"/>
      <path id="Path_334" data-name="Path 334" d="M79.919,37.994c0-7.975-5.835-13.81-18.868-13.81s-18.868,5.835-18.868,13.81S40.822,66.977,61.051,66.977,79.919,45.969,79.919,37.994Z" transform="translate(-37.419 -24.184)" fill="#fdcc9b"/>
      <g id="Group_48" data-name="Group 48" transform="translate(10.976 14.637)">
        <g id="Group_46" data-name="Group 46" transform="translate(1.424 5.981)">
          <ellipse id="Ellipse_43" data-name="Ellipse 43" cx="2.042" cy="2.237" rx="2.042" ry="2.237" fill="#3b2519"/>
          <circle id="Ellipse_44" data-name="Ellipse 44" cx="0.611" cy="0.611" r="0.611" transform="translate(0.541 0.639)" fill="#fff"/>
        </g>
        <path id="Path_335" data-name="Path 335" d="M61.194,71.1c.966.483,2.517-1.641,6.066.207.647.337,1.033-2.881-2.772-2.881C61.194,68.424,60.61,70.807,61.194,71.1Z" transform="translate(-60.995 -68.424)" fill="#51362a"/>
        <g id="Group_47" data-name="Group 47" transform="translate(20.056 5.981)">
          <ellipse id="Ellipse_45" data-name="Ellipse 45" cx="2.042" cy="2.237" rx="2.042" ry="2.237" fill="#3b2519"/>
          <circle id="Ellipse_46" data-name="Ellipse 46" cx="0.611" cy="0.611" r="0.611" transform="translate(0.541 0.639)" fill="#fff"/>
        </g>
        <path id="Path_336" data-name="Path 336" d="M123.791,71.1c-.966.483-2.517-1.641-6.066.207-.647.337-1.033-2.881,2.772-2.881C123.791,68.424,124.374,70.807,123.791,71.1Z" transform="translate(-98.677 -68.424)" fill="#51362a"/>
      </g>
      <path id="Path_337" data-name="Path 337" d="M92.708,115.066c-2.018,0-3.234-1.507-3.234-.778s.584,2.116,3.234,2.116,3.234-1.386,3.234-2.116S94.726,115.066,92.708,115.066Z" transform="translate(-69.075 -84.343)" fill="#fcbc85"/>
      <path id="Path_338" data-name="Path 338" d="M96.986,136.629c-.7,0-1.119-.521-1.119-.269s.2.732,1.119.732,1.118-.479,1.118-.732S97.683,136.629,96.986,136.629Z" transform="translate(-73.353 -99.2)" fill="#fcbc85"/>
      <path id="Path_339" data-name="Path 339" d="M88.881,129.621c-3.2,0-5.126-1.3-5.126-.972s.925,1.629,5.126,1.629,5.126-1.3,5.126-1.629S92.08,129.621,88.881,129.621Z" transform="translate(-65.249 -94.05)" fill="#f7945e"/>
    </g>
    <path id="Path_340" data-name="Path 340" d="M51.453,161.458v12.254H27.821C27.821,168.752,40.269,161.458,51.453,161.458Z" transform="translate(0 -108.037)" fill="#f7941e"/>
    <path id="Path_341" data-name="Path 341" d="M99.248,161.458v12.254H122.88C122.88,168.752,110.432,161.458,99.248,161.458Z" transform="translate(-47.795 -108.037)" fill="#f7941e"/>
    <path id="Path_342" data-name="Path 342" d="M84.735,161.458a30.953,30.953,0,0,0-7.176.9,9.612,9.612,0,0,0,7.176,3.379,10.67,10.67,0,0,0,7.432-3.319A31.11,31.11,0,0,0,84.735,161.458Z" transform="translate(-33.282 -108.037)" fill="#f36c21"/>
    <path id="Path_343" data-name="Path 343" d="M84.55,161.089s1.422,1.764,4.863,1.764,4.863-1.764,4.863-1.764S89.231,159.253,84.55,161.089Z" transform="translate(-37.96 -107.244)" fill="#fdcc9b"/>
    <path id="Path_344" data-name="Path 344" d="M71.634,6.3s-7-8.9-21.556-5.544S34.433,12.865,34.871,21.381s1.6,13.512,2.985,12.895.662-6.239.808-7.536,1.459-7.164,10.31-6.289a36.616,36.616,0,0,0,16.31-2.334s3,3.8,4.978,4.523c3.948,1.453,2.653,11.14,4.2,11.14S83.6,11.406,71.634,6.3Z" transform="translate(-4.668 0)" fill="#51362a"/>
  </g>
</svg>
