<svg xmlns="http://www.w3.org/2000/svg" xmlns:xlink="http://www.w3.org/1999/xlink" width="63.635" height="60.492" viewBox="0 0 63.635 60.492">
  <defs>
    <linearGradient id="linear-gradient" x1="0.671" y1="0.138" x2="0.563" y2="0.787" gradientUnits="objectBoundingBox">
      <stop offset="0" stop-color="#9a2f14"/>
      <stop offset="1" stop-color="#4d180a"/>
    </linearGradient>
  </defs>
  <g id="Group_56" data-name="Group 56" transform="translate(-68.777 -187.909)">
    <g id="Path_354" data-name="Path 354" transform="translate(68.777 187.909)" fill="#fff">
      <path d="M 31.81734848022461 59.99225616455078 C 27.58623886108398 59.99225616455078 23.48215866088867 59.20469665527344 19.6191291809082 57.65145492553711 C 15.88918876647949 56.15173721313477 12.53965854644775 54.00503540039063 9.663578033447266 51.27097702026367 C 6.789278507232666 48.53862762451172 4.532928466796875 45.35751724243164 2.957188367843628 41.81602478027344 C 1.32671844959259 38.15152740478516 0.4999984800815582 34.25884628295898 0.4999984800815582 30.24612617492676 C 0.4999984800815582 26.23340606689453 1.32671844959259 22.34072685241699 2.957188367843628 18.67622566223145 C 4.532928466796875 15.13473606109619 6.789278507232666 11.95363616943359 9.663578033447266 9.22127628326416 C 12.53965854644775 6.487226009368896 15.88918876647949 4.340526103973389 19.6191291809082 2.840806245803833 C 23.48215866088867 1.287566184997559 27.58623886108398 0.5000061988830566 31.81734848022461 0.5000061988830566 C 36.04845809936523 0.5000061988830566 40.15253829956055 1.287566184997559 44.01556777954102 2.840806245803833 C 47.74551010131836 4.340526103973389 51.09503936767578 6.487226009368896 53.97111892700195 9.22127628326416 C 56.84541702270508 11.95363616943359 59.10177993774414 15.13473606109619 60.67750930786133 18.67622566223145 C 62.30797958374023 22.34072685241699 63.13469696044922 26.23340606689453 63.13469696044922 30.24612617492676 C 63.13469696044922 34.25884628295898 62.30797958374023 38.15152740478516 60.67750930786133 41.81602478027344 C 59.10176849365234 45.35751724243164 56.84541702270508 48.53862762451172 53.97111892700195 51.27097702026367 C 51.09503936767578 54.00503540039063 47.74551010131836 56.15173721313477 44.01556777954102 57.65145492553711 C 40.15253829956055 59.20469665527344 36.04845809936523 59.99225616455078 31.81734848022461 59.99225616455078 Z" stroke="none"/>
      <path d="M 31.81734848022461 0.9999961853027344 C 27.65044021606445 0.9999961853027344 23.6091194152832 1.775405883789063 19.80564880371094 3.304695129394531 C 16.13455963134766 4.780757904052734 12.83817672729492 6.893306732177734 10.0080680847168 9.583656311035156 C 7.181529998779297 12.27062606811523 4.962959289550781 15.39818572998047 3.414009094238281 18.87948608398438 C 1.812187194824219 22.47959518432617 1 26.30388641357422 1 30.24612617492676 C 1 34.1883659362793 1.812187194824219 38.01265716552734 3.414009094238281 41.61276626586914 C 4.962959289550781 45.09405517578125 7.181529998779297 48.22162628173828 10.0080680847168 50.90858459472656 C 12.83817672729492 53.59893798828125 16.13455963134766 55.71148681640625 19.80564880371094 57.18754577636719 C 23.6091194152832 58.71683502197266 27.65044021606445 59.49224472045898 31.81734848022461 59.49224472045898 C 35.98426055908203 59.49224472045898 40.02557754516602 58.71683502197266 43.82904052734375 57.18754577636719 C 47.50012969970703 55.71148681640625 50.79651641845703 53.59893798828125 53.62662887573242 50.90858459472656 C 56.45316696166992 48.22162628173828 58.67173004150391 45.09405517578125 60.22068786621094 41.61276626586914 C 61.822509765625 38.01265716552734 62.63469696044922 34.1883659362793 62.63469696044922 30.24612617492676 C 62.63469696044922 26.30388641357422 61.822509765625 22.47959518432617 60.22068786621094 18.87948608398438 C 58.67173004150391 15.39818572998047 56.45316696166992 12.27062606811523 53.62662887573242 9.583656311035156 C 50.79651641845703 6.893306732177734 47.50012969970703 4.780757904052734 43.82904052734375 3.304695129394531 C 40.02557754516602 1.775405883789063 35.98426055908203 0.9999961853027344 31.81734848022461 0.9999961853027344 M 31.81734848022461 -3.814697265625e-06 C 49.38957977294922 -3.814697265625e-06 63.63469696044922 13.54165649414063 63.63469696044922 30.24612617492676 C 63.63469696044922 46.95059585571289 49.38957977294922 60.49224472045898 31.81734848022461 60.49224472045898 C 14.24510955810547 60.49224472045898 0 46.95059585571289 0 30.24612617492676 C 0 13.54165649414063 14.24510955810547 -3.814697265625e-06 31.81734848022461 -3.814697265625e-06 Z" stroke="none" fill="#707070"/>
    </g>
    <path id="edit" d="M26.831,1.342a4.6,4.6,0,0,0-6.491,0L1.951,19.73c-.009.009-.014.019-.021.029s-.02.025-.03.039a.5.5,0,0,0-.064.122c0,.013-.011.025-.015.038s0,.01-.006.015l-1.8,7.572a.506.506,0,0,0-.011.1c0,.007,0,.013,0,.019a.507.507,0,0,0,.033.169c0,.013.01.024.015.036a.509.509,0,0,0,.1.151.513.513,0,0,0,.167.111.506.506,0,0,0,.193.038.513.513,0,0,0,.118-.014l7.572-1.8a.369.369,0,0,0,.039-.015.472.472,0,0,0,.05-.02.5.5,0,0,0,.1-.063c.012-.01.025-.017.037-.028l.013-.01L26.831,7.832A4.6,4.6,0,0,0,26.831,1.342Zm-.721.721a3.573,3.573,0,0,1,.331,4.659L21.451,1.731A3.573,3.573,0,0,1,26.11,2.063ZM23.586,9.635,18.538,4.587l.721-.721,5.048,5.048ZM2.53,25.643a.509.509,0,0,0-.721,0l-.386.386,1.3-5.47,2.255-.25L4.69,22.92a.51.51,0,0,0,.005.056.521.521,0,0,0-.005.056c0,.017.011.031.014.047a.518.518,0,0,0,.025.084.5.5,0,0,0,.048.092.483.483,0,0,0,.051.065.511.511,0,0,0,.08.068.518.518,0,0,0,.07.043.531.531,0,0,0,.106.034.535.535,0,0,0,.055.018.5.5,0,0,0,.056,0h0a.507.507,0,0,0,.056,0l2.612-.29-.25,2.255-5.471,1.3.386-.386A.51.51,0,0,0,2.53,25.643Zm6.4-2.794L20.34,11.438a.51.51,0,0,0-.721-.721L8.208,22.128l-2.434.27.27-2.434L17.457,8.553a.51.51,0,1,0-.721-.721L5.324,19.244,3.7,19.424,17.817,5.308l5.048,5.048L8.749,24.472Zm16.1-14.656L19.98,3.145l.722-.722L25.75,7.471Z" transform="translate(88 203.077)" fill="url(#linear-gradient)"/>
  </g>
</svg>
