<svg xmlns="http://www.w3.org/2000/svg" xmlns:xlink="http://www.w3.org/1999/xlink" width="63.635" height="60.492" viewBox="0 0 63.635 60.492">
  <defs>
    <linearGradient id="linear-gradient" x1="0.5" x2="0.5" y2="1" gradientUnits="objectBoundingBox">
      <stop offset="0" stop-color="#922e15"/>
      <stop offset="1" stop-color="#49170b"/>
    </linearGradient>
  </defs>
  <g id="Group_58" data-name="Group 58" transform="translate(-68.777 -377.909)">
    <g id="Path_354" data-name="Path 354" transform="translate(68.777 377.909)" fill="#fff">
      <path d="M 31.81734848022461 59.99225616455078 C 27.58623886108398 59.99225616455078 23.48215866088867 59.20469665527344 19.6191291809082 57.65145492553711 C 15.88918876647949 56.15173721313477 12.53965854644775 54.00503540039063 9.663578033447266 51.27097702026367 C 6.789278507232666 48.53862762451172 4.532928466796875 45.35751724243164 2.957188367843628 41.81602478027344 C 1.32671844959259 38.15152740478516 0.4999984800815582 34.25884628295898 0.4999984800815582 30.24612617492676 C 0.4999984800815582 26.23340606689453 1.32671844959259 22.34072685241699 2.957188367843628 18.67622566223145 C 4.532928466796875 15.13473606109619 6.789278507232666 11.95363616943359 9.663578033447266 9.22127628326416 C 12.53965854644775 6.487226009368896 15.88918876647949 4.340526103973389 19.6191291809082 2.840806245803833 C 23.48215866088867 1.287566184997559 27.58623886108398 0.5000061988830566 31.81734848022461 0.5000061988830566 C 36.04845809936523 0.5000061988830566 40.15253829956055 1.287566184997559 44.01556777954102 2.840806245803833 C 47.74551010131836 4.340526103973389 51.09503936767578 6.487226009368896 53.97111892700195 9.22127628326416 C 56.84541702270508 11.95363616943359 59.10177993774414 15.13473606109619 60.67750930786133 18.67622566223145 C 62.30797958374023 22.34072685241699 63.13469696044922 26.23340606689453 63.13469696044922 30.24612617492676 C 63.13469696044922 34.25884628295898 62.30797958374023 38.15152740478516 60.67750930786133 41.81602478027344 C 59.10176849365234 45.35751724243164 56.84541702270508 48.53862762451172 53.97111892700195 51.27097702026367 C 51.09503936767578 54.00503540039063 47.74551010131836 56.15173721313477 44.01556777954102 57.65145492553711 C 40.15253829956055 59.20469665527344 36.04845809936523 59.99225616455078 31.81734848022461 59.99225616455078 Z" stroke="none"/>
      <path d="M 31.81734848022461 0.9999961853027344 C 27.65044021606445 0.9999961853027344 23.6091194152832 1.775405883789063 19.80564880371094 3.304695129394531 C 16.13455963134766 4.780757904052734 12.83817672729492 6.893306732177734 10.0080680847168 9.583656311035156 C 7.181529998779297 12.27062606811523 4.962959289550781 15.39818572998047 3.414009094238281 18.87948608398438 C 1.812187194824219 22.47959518432617 1 26.30388641357422 1 30.24612617492676 C 1 34.1883659362793 1.812187194824219 38.01265716552734 3.414009094238281 41.61276626586914 C 4.962959289550781 45.09405517578125 7.181529998779297 48.22162628173828 10.0080680847168 50.90858459472656 C 12.83817672729492 53.59893798828125 16.13455963134766 55.71148681640625 19.80564880371094 57.18754577636719 C 23.6091194152832 58.71683502197266 27.65044021606445 59.49224472045898 31.81734848022461 59.49224472045898 C 35.98426055908203 59.49224472045898 40.02557754516602 58.71683502197266 43.82904052734375 57.18754577636719 C 47.50012969970703 55.71148681640625 50.79651641845703 53.59893798828125 53.62662887573242 50.90858459472656 C 56.45316696166992 48.22162628173828 58.67173004150391 45.09405517578125 60.22068786621094 41.61276626586914 C 61.822509765625 38.01265716552734 62.63469696044922 34.1883659362793 62.63469696044922 30.24612617492676 C 62.63469696044922 26.30388641357422 61.822509765625 22.47959518432617 60.22068786621094 18.87948608398438 C 58.67173004150391 15.39818572998047 56.45316696166992 12.27062606811523 53.62662887573242 9.583656311035156 C 50.79651641845703 6.893306732177734 47.50012969970703 4.780757904052734 43.82904052734375 3.304695129394531 C 40.02557754516602 1.775405883789063 35.98426055908203 0.9999961853027344 31.81734848022461 0.9999961853027344 M 31.81734848022461 -3.814697265625e-06 C 49.38957977294922 -3.814697265625e-06 63.63469696044922 13.54165649414063 63.63469696044922 30.24612617492676 C 63.63469696044922 46.95059585571289 49.38957977294922 60.49224472045898 31.81734848022461 60.49224472045898 C 14.24510955810547 60.49224472045898 0 46.95059585571289 0 30.24612617492676 C 0 13.54165649414063 14.24510955810547 -3.814697265625e-06 31.81734848022461 -3.814697265625e-06 Z" stroke="none" fill="#707070"/>
    </g>
    <g id="portrait" transform="translate(117.637 867.866)">
      <path id="Path_364" data-name="Path 364" d="M45.919,127.928H.778A.779.779,0,0,1,0,127.147V96.657a.779.779,0,0,1,.778-.781h45.14a.78.78,0,0,1,.778.781v30.49A.78.78,0,0,1,45.919,127.928ZM1.556,126.365H45.14V97.439H1.556Zm0,0" transform="translate(-40 -571.115)" fill="url(#linear-gradient)"/>
      <path id="Path_365" data-name="Path 365" d="M65.789,147.771H28.063a.75.75,0,0,1-.754-.745v-23.1a.75.75,0,0,1,.754-.745H65.789a.75.75,0,0,1,.755.745v23.1A.75.75,0,0,1,65.789,147.771Zm-36.971-1.49H65.035V124.67H28.818Zm0,0" transform="translate(-63.578 -594.688)" fill="url(#linear-gradient)"/>
      <path id="Path_371" data-name="Path 371" d="M153.6,295.415H137.433a.916.916,0,0,1-.9-.933v-1.153a6.2,6.2,0,0,1,6.077-6.309h1.11a.933.933,0,0,1,0,1.865h-1.11a4.369,4.369,0,0,0-4.28,4.444v.22h14.374v-.22a4.369,4.369,0,0,0-4.28-4.444h-1.11a.933.933,0,0,1,0-1.865h1.11a6.2,6.2,0,0,1,6.077,6.309v1.153a.916.916,0,0,1-.9.933Zm0,0" transform="translate(-161.826 -743.332)" fill="url(#linear-gradient)"/>
      <path id="Path_372" data-name="Path 372" d="M163.542,218.148a6.537,6.537,0,0,1-6.53-6.529V210.7a5.6,5.6,0,0,1,5.6-5.6h1.865a5.6,5.6,0,0,1,5.6,5.6v.921a6.537,6.537,0,0,1-6.529,6.529Zm-.933-11.181a3.735,3.735,0,0,0-3.731,3.731v.921a4.664,4.664,0,1,0,9.328,0V210.7a3.735,3.735,0,0,0-3.731-3.731Zm0,0" transform="translate(-180.193 -673.084)" fill="url(#linear-gradient)"/>
    </g>
  </g>
</svg>
