<svg xmlns="http://www.w3.org/2000/svg" xmlns:xlink="http://www.w3.org/1999/xlink" width="63.635" height="60.492" viewBox="0 0 63.635 60.492">
  <defs>
    <linearGradient id="linear-gradient" x1="0.5" x2="0.5" y2="1" gradientUnits="objectBoundingBox">
      <stop offset="0" stop-color="#b83918"/>
      <stop offset="1" stop-color="#4c180b"/>
    </linearGradient>
  </defs>
  <g id="Group_59" data-name="Group 59" transform="translate(-68.777 -473.909)">
    <g id="Path_353" data-name="Path 353" transform="translate(68.777 473.909)" fill="#fff">
      <path d="M 31.81734848022461 59.99225616455078 C 27.58623886108398 59.99225616455078 23.48215866088867 59.20469665527344 19.6191291809082 57.65145492553711 C 15.88918876647949 56.15173721313477 12.53965854644775 54.00503540039063 9.663578033447266 51.27097702026367 C 6.789278507232666 48.53862762451172 4.532928466796875 45.35751724243164 2.957188367843628 41.81602478027344 C 1.32671844959259 38.15152740478516 0.4999984800815582 34.25884628295898 0.4999984800815582 30.24612617492676 C 0.4999984800815582 26.23340606689453 1.32671844959259 22.34072685241699 2.957188367843628 18.67622566223145 C 4.532928466796875 15.13473606109619 6.789278507232666 11.95363616943359 9.663578033447266 9.22127628326416 C 12.53965854644775 6.487226009368896 15.88918876647949 4.340526103973389 19.6191291809082 2.840806245803833 C 23.48215866088867 1.287566184997559 27.58623886108398 0.5000061988830566 31.81734848022461 0.5000061988830566 C 36.04845809936523 0.5000061988830566 40.15253829956055 1.287566184997559 44.01556777954102 2.840806245803833 C 47.74551010131836 4.340526103973389 51.09503936767578 6.487226009368896 53.97111892700195 9.22127628326416 C 56.84541702270508 11.95363616943359 59.10177993774414 15.13473606109619 60.67750930786133 18.67622566223145 C 62.30797958374023 22.34072685241699 63.13469696044922 26.23340606689453 63.13469696044922 30.24612617492676 C 63.13469696044922 34.25884628295898 62.30797958374023 38.15152740478516 60.67750930786133 41.81602478027344 C 59.10176849365234 45.35751724243164 56.84541702270508 48.53862762451172 53.97111892700195 51.27097702026367 C 51.09503936767578 54.00503540039063 47.74551010131836 56.15173721313477 44.01556777954102 57.65145492553711 C 40.15253829956055 59.20469665527344 36.04845809936523 59.99225616455078 31.81734848022461 59.99225616455078 Z" stroke="none"/>
      <path d="M 31.81734848022461 0.9999961853027344 C 27.65044021606445 0.9999961853027344 23.6091194152832 1.775405883789063 19.80564880371094 3.304695129394531 C 16.13455963134766 4.780757904052734 12.83817672729492 6.893306732177734 10.0080680847168 9.583656311035156 C 7.181529998779297 12.27062606811523 4.962959289550781 15.39818572998047 3.414009094238281 18.87948608398438 C 1.812187194824219 22.47959518432617 1 26.30388641357422 1 30.24612617492676 C 1 34.1883659362793 1.812187194824219 38.01265716552734 3.414009094238281 41.61276626586914 C 4.962959289550781 45.09405517578125 7.181529998779297 48.22162628173828 10.0080680847168 50.90858459472656 C 12.83817672729492 53.59893798828125 16.13455963134766 55.71148681640625 19.80564880371094 57.18754577636719 C 23.6091194152832 58.71683502197266 27.65044021606445 59.49224472045898 31.81734848022461 59.49224472045898 C 35.98426055908203 59.49224472045898 40.02557754516602 58.71683502197266 43.82904052734375 57.18754577636719 C 47.50012969970703 55.71148681640625 50.79651641845703 53.59893798828125 53.62662887573242 50.90858459472656 C 56.45316696166992 48.22162628173828 58.67173004150391 45.09405517578125 60.22068786621094 41.61276626586914 C 61.822509765625 38.01265716552734 62.63469696044922 34.1883659362793 62.63469696044922 30.24612617492676 C 62.63469696044922 26.30388641357422 61.822509765625 22.47959518432617 60.22068786621094 18.87948608398438 C 58.67173004150391 15.39818572998047 56.45316696166992 12.27062606811523 53.62662887573242 9.583656311035156 C 50.79651641845703 6.893306732177734 47.50012969970703 4.780757904052734 43.82904052734375 3.304695129394531 C 40.02557754516602 1.775405883789063 35.98426055908203 0.9999961853027344 31.81734848022461 0.9999961853027344 M 31.81734848022461 -3.814697265625e-06 C 49.38957977294922 -3.814697265625e-06 63.63469696044922 13.54165649414063 63.63469696044922 30.24612617492676 C 63.63469696044922 46.95059585571289 49.38957977294922 60.49224472045898 31.81734848022461 60.49224472045898 C 14.24510955810547 60.49224472045898 0 46.95059585571289 0 30.24612617492676 C 0 13.54165649414063 14.24510955810547 -3.814697265625e-06 31.81734848022461 -3.814697265625e-06 Z" stroke="none" fill="#707070"/>
    </g>
    <g id="promotion" transform="translate(79.293 484.155)">
      <path id="Path_373" data-name="Path 373" d="M123.216,291.133a.835.835,0,1,0-1.141-.306A.835.835,0,0,0,123.216,291.133Zm0,0" transform="translate(-111.781 -265.398)" fill="url(#linear-gradient)"/>
      <path id="Path_374" data-name="Path 374" d="M8.014,51.986l4.2,7.283A3.34,3.34,0,1,0,18,55.93l-2.5-4.339,2.169-1.252a.835.835,0,0,0,.306-1.14l-1.086-1.881,15.992-3.137a2.5,2.5,0,0,0,2.03-3.753l-2.775-4.806,1.773-2.686a.835.835,0,0,0,.026-.878l-1.67-2.892a.837.837,0,0,0-.773-.416l-3.212.193L25.2,23.608a2.483,2.483,0,0,0-2.138-1.252h-.032A2.483,2.483,0,0,0,20.92,23.51L10.013,37.4,2.922,41.5A5.844,5.844,0,0,0,8.014,51.986Zm8.543,4.779a1.67,1.67,0,0,1-2.893,1.669L9.49,51.2l2.892-1.67,4.175,7.232Zm-1.894-6.621L13.828,48.7l1.446-.835.835,1.446Zm16.413-19.7,1.154,2L31.2,34.005,29.212,30.56Zm-8.76-6.022a.835.835,0,0,1,1.436.017l9.711,16.821a.835.835,0,0,1-.7,1.252,3.065,3.065,0,0,0-.458.078L22.03,24.8c.216-.277.243-.3.286-.374Zm-1.4,1.79L30.57,42.932,16,45.789l-4.429-7.671ZM2.229,48.647a4.172,4.172,0,0,1,1.528-5.7l6.507-3.757,4.175,7.23L7.932,50.175a4.18,4.18,0,0,1-5.7-1.528Zm0,0" transform="translate(0 -20.489)" fill="url(#linear-gradient)"/>
      <path id="Path_375" data-name="Path 375" d="M47.967,309.99a.835.835,0,0,0-1.141-.306l-1.446.835a.836.836,0,0,1-1.141-.306.835.835,0,1,0-1.446.835,2.508,2.508,0,0,0,3.422.917l1.446-.835a.835.835,0,0,0,.306-1.14Zm0,0" transform="translate(-39.118 -283.726)" fill="url(#linear-gradient)"/>
      <path id="Path_376" data-name="Path 376" d="M441.356,42.587,436.7,45.175a.835.835,0,1,0,.812,1.459l4.652-2.589a.835.835,0,0,0-.812-1.459Zm0,0" transform="translate(-399.85 -38.934)" fill="url(#linear-gradient)"/>
      <path id="Path_377" data-name="Path 377" d="M444.34,137.514l-3.226-.864a.835.835,0,1,0-.432,1.613l3.226.864a.835.835,0,1,0,.432-1.613Zm0,0" transform="translate(-403.322 -125.214)" fill="url(#linear-gradient)"/>
      <path id="Path_378" data-name="Path 378" d="M384.386.619l-.865,3.226a.835.835,0,0,0,1.613.432L386,1.052a.835.835,0,1,0-1.613-.432Zm0,0" transform="translate(-351.474 0)" fill="url(#linear-gradient)"/>
    </g>
  </g>
</svg>
