<svg xmlns="http://www.w3.org/2000/svg" xmlns:xlink="http://www.w3.org/1999/xlink" width="63.635" height="60.492" viewBox="0 0 63.635 60.492">
  <defs>
    <linearGradient id="linear-gradient" x1="0.5" x2="0.5" y2="1" gradientUnits="objectBoundingBox">
      <stop offset="0" stop-color="#ae3719"/>
      <stop offset="1" stop-color="#571c0d"/>
    </linearGradient>
  </defs>
  <g id="Group_57" data-name="Group 57" transform="translate(-68.777 -283.909)">
    <g id="Path_352" data-name="Path 352" transform="translate(68.777 283.909)" fill="#fff">
      <path d="M 31.81734848022461 59.99225616455078 C 27.58623886108398 59.99225616455078 23.48215866088867 59.20469665527344 19.6191291809082 57.65145492553711 C 15.88918876647949 56.15173721313477 12.53965854644775 54.00503540039063 9.663578033447266 51.27097702026367 C 6.789278507232666 48.53862762451172 4.532928466796875 45.35751724243164 2.957188367843628 41.81602478027344 C 1.32671844959259 38.15152740478516 0.4999984800815582 34.25884628295898 0.4999984800815582 30.24612617492676 C 0.4999984800815582 26.23340606689453 1.32671844959259 22.34072685241699 2.957188367843628 18.67622566223145 C 4.532928466796875 15.13473606109619 6.789278507232666 11.95363616943359 9.663578033447266 9.22127628326416 C 12.53965854644775 6.487226009368896 15.88918876647949 4.340526103973389 19.6191291809082 2.840806245803833 C 23.48215866088867 1.287566184997559 27.58623886108398 0.5000061988830566 31.81734848022461 0.5000061988830566 C 36.04845809936523 0.5000061988830566 40.15253829956055 1.287566184997559 44.01556777954102 2.840806245803833 C 47.74551010131836 4.340526103973389 51.09503936767578 6.487226009368896 53.97111892700195 9.22127628326416 C 56.84541702270508 11.95363616943359 59.10177993774414 15.13473606109619 60.67750930786133 18.67622566223145 C 62.30797958374023 22.34072685241699 63.13469696044922 26.23340606689453 63.13469696044922 30.24612617492676 C 63.13469696044922 34.25884628295898 62.30797958374023 38.15152740478516 60.67750930786133 41.81602478027344 C 59.10176849365234 45.35751724243164 56.84541702270508 48.53862762451172 53.97111892700195 51.27097702026367 C 51.09503936767578 54.00503540039063 47.74551010131836 56.15173721313477 44.01556777954102 57.65145492553711 C 40.15253829956055 59.20469665527344 36.04845809936523 59.99225616455078 31.81734848022461 59.99225616455078 Z" stroke="none"/>
      <path d="M 31.81734848022461 0.9999961853027344 C 27.65044021606445 0.9999961853027344 23.6091194152832 1.775405883789063 19.80564880371094 3.304695129394531 C 16.13455963134766 4.780757904052734 12.83817672729492 6.893306732177734 10.0080680847168 9.583656311035156 C 7.181529998779297 12.27062606811523 4.962959289550781 15.39818572998047 3.414009094238281 18.87948608398438 C 1.812187194824219 22.47959518432617 1 26.30388641357422 1 30.24612617492676 C 1 34.1883659362793 1.812187194824219 38.01265716552734 3.414009094238281 41.61276626586914 C 4.962959289550781 45.09405517578125 7.181529998779297 48.22162628173828 10.0080680847168 50.90858459472656 C 12.83817672729492 53.59893798828125 16.13455963134766 55.71148681640625 19.80564880371094 57.18754577636719 C 23.6091194152832 58.71683502197266 27.65044021606445 59.49224472045898 31.81734848022461 59.49224472045898 C 35.98426055908203 59.49224472045898 40.02557754516602 58.71683502197266 43.82904052734375 57.18754577636719 C 47.50012969970703 55.71148681640625 50.79651641845703 53.59893798828125 53.62662887573242 50.90858459472656 C 56.45316696166992 48.22162628173828 58.67173004150391 45.09405517578125 60.22068786621094 41.61276626586914 C 61.822509765625 38.01265716552734 62.63469696044922 34.1883659362793 62.63469696044922 30.24612617492676 C 62.63469696044922 26.30388641357422 61.822509765625 22.47959518432617 60.22068786621094 18.87948608398438 C 58.67173004150391 15.39818572998047 56.45316696166992 12.27062606811523 53.62662887573242 9.583656311035156 C 50.79651641845703 6.893306732177734 47.50012969970703 4.780757904052734 43.82904052734375 3.304695129394531 C 40.02557754516602 1.775405883789063 35.98426055908203 0.9999961853027344 31.81734848022461 0.9999961853027344 M 31.81734848022461 -3.814697265625e-06 C 49.38957977294922 -3.814697265625e-06 63.63469696044922 13.54165649414063 63.63469696044922 30.24612617492676 C 63.63469696044922 46.95059585571289 49.38957977294922 60.49224472045898 31.81734848022461 60.49224472045898 C 14.24510955810547 60.49224472045898 0 46.95059585571289 0 30.24612617492676 C 0 13.54165649414063 14.24510955810547 -3.814697265625e-06 31.81734848022461 -3.814697265625e-06 Z" stroke="none" fill="#707070"/>
    </g>
    <g id="printer" transform="translate(69 274.227)">
      <g id="Group_51" data-name="Group 51" transform="translate(9)">
        <path id="Path_360" data-name="Path 360" d="M45.846,49.148,44.7,36.7a3.329,3.329,0,0,0-3.384-2.974h-.78V32.136a3.035,3.035,0,0,0-3.091-2.968H36.217v-4.19a.64.64,0,0,0-.2-.458l-4.871-4.678a.694.694,0,0,0-.477-.19H10.317a.661.661,0,0,0-.674.647v3.778a.675.675,0,0,0,1.348,0V20.947H30v4.031a.661.661,0,0,0,.674.647h4.2v8.105H10.991V26.667a.675.675,0,0,0-1.348,0v2.5H8.419a3.035,3.035,0,0,0-3.091,2.968v1.594h-.78A3.329,3.329,0,0,0,1.164,36.7L.977,38.725a.655.655,0,0,0,.612.7.667.667,0,0,0,.731-.587l.187-2.021a2.008,2.008,0,0,1,2.041-1.794H41.312a2.008,2.008,0,0,1,2.041,1.794L44.5,49.262a1.9,1.9,0,0,1-.529,1.5,2.066,2.066,0,0,1-1.512.639H36.217V45.759h1.608V47a.675.675,0,0,0,1.348,0V45.112a.661.661,0,0,0-.674-.647H7.361a.661.661,0,0,0-.674.647V47a.675.675,0,0,0,1.348,0V45.759H9.643V51.4H3.4a2.066,2.066,0,0,1-1.512-.639,1.9,1.9,0,0,1-.529-1.5l.724-7.837a.655.655,0,0,0-.612-.7.667.667,0,0,0-.731.587L.013,49.148a3.19,3.19,0,0,0,.878,2.491A3.471,3.471,0,0,0,3.4,52.7H9.643v6.953a.661.661,0,0,0,.674.647H35.543a.661.661,0,0,0,.674-.647V56.535a.675.675,0,0,0-1.348,0V59H10.991V45.759H34.869v8.187a.675.675,0,0,0,1.348,0V52.7h6.246a3.471,3.471,0,0,0,2.506-1.06A3.19,3.19,0,0,0,45.846,49.148Zm-14.5-27.285,2.571,2.468H31.345Zm4.872,8.6h1.224a1.711,1.711,0,0,1,1.743,1.674v1.594H36.217ZM6.676,32.136a1.711,1.711,0,0,1,1.743-1.674H9.643v3.268H6.676Z" transform="translate(0 0)" fill="url(#linear-gradient)"/>
      </g>
      <path id="Path_361" data-name="Path 361" d="M426.128,228.717a1.848,1.848,0,1,0-1.848,1.848A1.85,1.85,0,0,0,426.128,228.717Z" transform="translate(-382.743 -186.803)" fill="url(#linear-gradient)"/>
      <path id="Path_362" data-name="Path 362" d="M388.669,228.717a1.848,1.848,0,1,0-1.848,1.848A1.85,1.85,0,0,0,388.669,228.717Z" transform="translate(-346.164 -186.803)" fill="url(#linear-gradient)"/>
      <path id="Path_363" data-name="Path 363" d="M351.208,228.717a1.848,1.848,0,1,0-1.848,1.848A1.85,1.85,0,0,0,351.208,228.717Z" transform="translate(-312.479 -186.803)" fill="url(#linear-gradient)"/>
    </g>
  </g>
</svg>
