<svg xmlns="http://www.w3.org/2000/svg" xmlns:xlink="http://www.w3.org/1999/xlink" width="70.524" height="73.585" viewBox="0 0 70.524 73.585">
  <defs>
    <filter id="Path_256" x="-7" y="-6" width="88.524" height="91.585" filterUnits="userSpaceOnUse">
      <feOffset dx="2" dy="3" input="SourceAlpha"/>
      <feGaussianBlur stdDeviation="3" result="blur"/>
      <feFlood flood-opacity="0.161"/>
      <feComposite operator="in" in2="blur"/>
      <feComposite in="SourceGraphic"/>
    </filter>
    <clipPath id="clip-path">
      <g transform="matrix(1, 0, 0, 1, 0, 0)" filter="url(#Path_256)">
        <path id="Path_256-2" data-name="Path 256" d="M1.1,0H69.426c.607,0,1.1.363,1.1.81V72.775c0,.448-.492.81-1.1.81H1.1c-.607,0-1.1-.363-1.1-.81V.81C0,.363.492,0,1.1,0Z" transform="translate(5.01 191.01)" fill="#fff" opacity="0.999"/>
      </g>
    </clipPath>
  </defs>
  <g id="Mask_Group_1" data-name="Mask Group 1" transform="translate(-5.014 -191.007)" clip-path="url(#clip-path)">
    <path id="user" d="M35.262,0a35.635,35.635,0,0,0-23.9,61.722l-.092.127.9.782a35.089,35.089,0,0,0,17.543,8.1c.456.072.917.132,1.378.186.5.058,1,.11,1.508.145.742.056,1.49.092,2.244.1.079,0,.158.01.237.01l.067,0,.114,0A35.588,35.588,0,0,0,35.262,0Zm-.11,68.584c-.115,0-.228-.008-.342-.009-.613-.005-1.223-.038-1.832-.078A32.352,32.352,0,0,1,14.931,61.4a6.913,6.913,0,0,1,1.623-1.165L28.27,55.165a5.5,5.5,0,0,0,2.088-2.67,2.3,2.3,0,0,0-.106-2.227,2.262,2.262,0,0,0-1.94-1.092l-8.139.006a19.507,19.507,0,0,1-4.911-1.2c-.395-.171-.56-.3-.608-.312a1.39,1.39,0,0,1,.181-.325c2.9-4.172,7.8-12.479,7.968-21.235.01-.49.389-12.018,11.966-12.114a12.09,12.09,0,0,1,11.651,7.532,17.975,17.975,0,0,1,1.366,6.192c.5,7.635,3.975,14.838,6.8,19.534a1.1,1.1,0,0,1,.123.817.955.955,0,0,1-.43.6,5.112,5.112,0,0,1-3.074.523l-8.542-.019a2.127,2.127,0,0,0-2.014,1.483,2.237,2.237,0,0,0,.687,2.481,11.219,11.219,0,0,0,1.416,1.028l9.77,5.964a7.087,7.087,0,0,1,2.17,1.856A32.1,32.1,0,0,1,35.152,68.584ZM56.74,60.437a9.525,9.525,0,0,0-2.94-2.548l-9.77-5.964c-.021-.012-.09-.052-.244-.16h7.1a7.6,7.6,0,0,0,4.7-.871A3.518,3.518,0,0,0,57.2,48.7a3.71,3.71,0,0,0-.419-2.784C54.1,41.467,50.81,34.669,50.344,27.554a20.555,20.555,0,0,0-1.586-7.083c-1.826-4.095-5.73-8.99-13.989-9.059-14.059.116-14.528,14.5-14.531,14.649-.16,8.373-5.3,16.636-7.5,19.8a2.9,2.9,0,0,0-.569,2.486,3.278,3.278,0,0,0,2.084,2.019,21.7,21.7,0,0,0,5.8,1.4h7.8a4.363,4.363,0,0,1-.657,1.052L15.506,57.874l-.068.031a9.429,9.429,0,0,0-2.454,1.805A33.041,33.041,0,0,1,35.262,2.588,33.04,33.04,0,0,1,56.74,60.437Z" transform="translate(5.014 192.213)" fill="#fff"/>
  </g>
</svg>
