<svg xmlns="http://www.w3.org/2000/svg" xmlns:xlink="http://www.w3.org/1999/xlink" width="38.443" height="38.443" viewBox="0 0 38.443 38.443"><defs><linearGradient id="a" x1="0.5" y1="0.242" x2="0.5" y2="1" gradientUnits="objectBoundingBox"><stop offset="0" stop-color="#d8451f"/><stop offset="1" stop-color="#732511"/></linearGradient></defs><g transform="translate(0.575 0.575)"><path d="M18.646,9.323a2.331,2.331,0,1,0,2.331,2.331A2.332,2.332,0,0,0,18.646,9.323Zm0,6.992a2.331,2.331,0,0,0-2.331,2.331v6.992a2.331,2.331,0,0,0,4.662,0V18.646A2.331,2.331,0,0,0,18.646,16.316ZM18.646,0A18.646,18.646,0,1,0,37.293,18.646,18.668,18.668,0,0,0,18.646,0Zm0,33.8A15.15,15.15,0,1,1,33.8,18.646,15.167,15.167,0,0,1,18.646,33.8Z" stroke="#fff" stroke-width="1.15" fill="url(#a)"/></g></svg>