<?xml version="1.0" encoding="utf-8"?>
<!-- Generator: Adobe Illustrator 24.0.0, SVG Export Plug-In . SVG Version: 6.00 Build 0)  -->
<svg version="1.1" id="Layer_1" xmlns="http://www.w3.org/2000/svg" xmlns:xlink="http://www.w3.org/1999/xlink" x="0px" y="0px"
	 viewBox="0 0 150 150" style="enable-background:new 0 0 150 150;" xml:space="preserve">
<style type="text/css">
	.st0{fill:#C8C8C8;}
	.st1{fill:#EDEDED;}
	.st2{fill:#FFFFFF;}
	.st3{fill:#25C6D8;}
	.st4{fill:#248DA5;}
	.st5{fill:#E5E5E5;}
	.st6{fill:#BABABA;}
	.st7{fill:#E7E6E6;}
	.st8{fill:#EBEBEB;}
</style>
<title>event</title>
<g id="Calendar">
	<path class="st0" d="M140.1,127.5L23.6,147.5c-6.4,1.1-12.5-3.2-13.7-9.7c0,0-11.4-118-1-119.7c0,0,122.4-12.2,124.2-1.8l16.7,97.6
		C150.9,120.3,146.6,126.4,140.1,127.5z"/>
	<path class="st1" d="M133.5,131.7L15.9,143c-6.5,0.6-12.2-4.2-12.9-10.6c0,0-2.7-118.5,7.8-119.5c0,0,122.9-3.1,123.9,7.4l9.4,98.6
		C144.8,125.3,140,131.1,133.5,131.7z"/>
	<path class="st1" d="M12.2,127.5L118.6,143c6.5,0.6,12.3-4.2,12.9-10.7c0,0,2.7-118.5-7.8-119.5c0,0-105.2-2.7-106.2,7.8l-11.1,90
		C5.8,117.1,5.7,126.9,12.2,127.5z"/>
	<path class="st2" d="M130,134.9H11.8c-6.5,0-11.8-5.3-11.8-11.8V26C0,15.5,8.6,6.9,19.2,6.9h103.5c10.6,0,19.2,8.6,19.2,19.2v97
		C141.8,129.6,136.6,134.9,130,134.9z"/>
	<path class="st3" d="M141.9,40.1H0V26C0,15.5,8.6,6.9,19.2,6.9h103.5c10.6,0,19.2,8.6,19.2,19.2V40.1z"/>
	<path class="st4" d="M23.1,16.5c-3-0.3-2.9-2.6-2.9-4.5V6.9H26C25.8,13,26.9,16.2,23.1,16.5z"/>
	<path class="st4" d="M57.2,16.5c-3-0.3-2.9-2.6-2.9-4.5V6.9h5.8C60,13,61.1,16.2,57.2,16.5z"/>
	<path class="st4" d="M89.2,16.5c-3-0.3-3-2.6-2.9-4.5V6.9h5.8C91.9,13,93,16.2,89.2,16.5z"/>
	<path class="st4" d="M121.3,16.5c-3-0.3-2.9-2.6-2.9-4.6V6.9c0.1-0.4,5.8,0.1,5.8,0.1C124.1,12.9,125.2,16.2,121.3,16.5z"/>
	<path class="st5" d="M56.1,15.6c-3.6-0.4-2.8-3.2-2.8-6.6c0.1-3.7-0.6-5.9,2.7-6.6c3.9,0.2,3,3.5,3.1,6.7
		C58.9,12.8,59.6,15.1,56.1,15.6z"/>
	<path class="st5" d="M88.2,15.6c-3.6-0.4-2.8-3.2-2.9-6.6C85.4,5.2,84.7,3,88,2.4c3.9,0.2,3,3.5,3.1,6.7
		C91,12.8,91.7,15.1,88.2,15.6z"/>
	<path class="st5" d="M120.3,15.6c-3.6-0.4-2.8-3.2-2.9-6.6c0.1-3.7-0.6-5.9,2.7-6.6c3.9,0.2,3,3.5,3.1,6.7
		C123.1,12.8,123.8,15.1,120.3,15.6z"/>
	<path class="st6" d="M135.2,113.6l-20.2,21.3c0.1-0.2,1.1-5.8,0.7-7.5c-1.3-8.2,1.3-11.2,6.3-12.5
		C126,114.3,132.2,115.8,135.2,113.6z"/>
	<path class="st7" d="M141.9,112.3l-26.9,22.6c0,0.1,1.6-5.3,1.6-7.7c-0.3-9.1,0.7-12.4,7.1-14.7c3-1,7.3,0.3,10.3,0.5
		C135.4,113.1,140.6,113.5,141.9,112.3z"/>
	<rect x="14.6" y="58.8" class="st5" width="18.9" height="12.3"/>
	<rect x="14.6" y="80.6" class="st5" width="18.9" height="12.3"/>
	<rect x="44.8" y="80.6" class="st8" width="18.9" height="12.3"/>
	<rect x="74.9" y="80.6" class="st8" width="18.9" height="12.3"/>
	<rect x="104.4" y="80.6" class="st8" width="18.9" height="12.3"/>
	<rect x="14.6" y="102.4" class="st5" width="18.9" height="12.3"/>
	<rect x="44.8" y="102.4" class="st5" width="18.9" height="12.3"/>
	<rect x="74.9" y="102.4" class="st5" width="18.9" height="12.3"/>
	<rect x="44.8" y="58.8" class="st5" width="18.9" height="12.3"/>
	<rect x="74.9" y="58.8" class="st5" width="18.9" height="12.3"/>
	<rect x="105" y="58.8" class="st5" width="18.9" height="12.3"/>
	<path class="st5" d="M21.9,15.6c-3.6-0.4-2.8-3.2-2.9-6.6c0.1-3.7-0.6-5.9,2.7-6.6c3.9,0.2,3,3.5,3.1,6.7
		C24.7,12.8,25.4,15.1,21.9,15.6z"/>
</g>
</svg>
