<svg xmlns="http://www.w3.org/2000/svg" xmlns:xlink="http://www.w3.org/1999/xlink" viewBox="0 0 200 200"><defs><style>.cls-1{isolation:isolate;}.cls-2{fill:url(#linear-gradient);}.cls-3{fill:url(#linear-gradient-2);}.cls-4{fill:url(#linear-gradient-3);}.cls-5{fill:#303030;}.cls-5,.cls-6,.cls-9{mix-blend-mode:screen;}.cls-7{fill:#111;}.cls-18,.cls-8{fill:#fafafa;}.cls-9{fill:url(#linear-gradient-4);}.cls-10,.cls-11{fill:#fff;}.cls-11{stroke:#231f20;stroke-miterlimit:10;stroke-width:0.5px;}.cls-12{fill:url(#linear-gradient-5);}.cls-13{fill:url(#linear-gradient-6);}.cls-14{fill:url(#linear-gradient-7);}.cls-15{fill:#d8f1f4;}.cls-16{fill:#25c6d8;}.cls-17{fill:#fbc100;}.cls-18{font-size:10px;font-family:Lato-Black, Lato;font-weight:800;}</style><linearGradient id="linear-gradient" x1="-1423.4" y1="86.24" x2="-1423.4" y2="58.12" gradientTransform="matrix(-1, 0, 0, 1, -1380.69, 0)" gradientUnits="userSpaceOnUse"><stop offset="0" stop-color="gray"/><stop offset="0.01" stop-color="#727272"/><stop offset="0.06" stop-color="#4f4f4f"/><stop offset="0.1" stop-color="#323232"/><stop offset="0.15" stop-color="#1c1c1c"/><stop offset="0.2" stop-color="#0c0c0c"/><stop offset="0.26" stop-color="#030303"/><stop offset="0.34"/><stop offset="0.7"/><stop offset="0.75" stop-color="#050505"/><stop offset="0.8" stop-color="#131313"/><stop offset="0.86" stop-color="#2a2a2a"/><stop offset="0.92" stop-color="#4b4b4b"/><stop offset="0.98" stop-color="#747474"/><stop offset="1" stop-color="gray"/></linearGradient><linearGradient id="linear-gradient-2" x1="-1423.4" y1="101.01" x2="-1423.4" y2="89.48" xlink:href="#linear-gradient"/><linearGradient id="linear-gradient-3" x1="-1546.92" y1="99.55" x2="-1421.07" y2="99.55" gradientTransform="matrix(-1, 0, 0, 1, -1380.69, 0)" gradientUnits="userSpaceOnUse"><stop offset="0" stop-color="#333"/><stop offset="0" stop-color="#323232"/><stop offset="0.03" stop-color="#1c1c1c"/><stop offset="0.06" stop-color="#0c0c0c"/><stop offset="0.1" stop-color="#030303"/><stop offset="0.15"/><stop offset="0.87"/><stop offset="0.91" stop-color="#050505"/><stop offset="0.95" stop-color="#131313"/><stop offset="0.99" stop-color="#2a2a2a"/><stop offset="1" stop-color="#333"/></linearGradient><linearGradient id="linear-gradient-4" x1="45.37" y1="181.81" x2="152.59" y2="26.38" gradientUnits="userSpaceOnUse"><stop offset="0" stop-color="#fff"/><stop offset="0.03" stop-color="#ededed"/><stop offset="0.14" stop-color="#b6b6b6"/><stop offset="0.26" stop-color="#868686"/><stop offset="0.37" stop-color="#5d5d5d"/><stop offset="0.49" stop-color="#3b3b3b"/><stop offset="0.61" stop-color="#212121"/><stop offset="0.73" stop-color="#0f0f0f"/><stop offset="0.86" stop-color="#040404"/><stop offset="1"/></linearGradient><linearGradient id="linear-gradient-5" x1="103.01" y1="9.74" x2="103.01" y2="20.28" gradientUnits="userSpaceOnUse"><stop offset="0"/><stop offset="0.14" stop-color="#050505"/><stop offset="0.3" stop-color="#131313"/><stop offset="0.47" stop-color="#2a2a2a"/><stop offset="0.65" stop-color="#4b4b4b"/><stop offset="0.83" stop-color="#747474"/><stop offset="1" stop-color="#a1a1a1"/></linearGradient><linearGradient id="linear-gradient-6" x1="89.26" y1="13.17" x2="89.26" y2="18.96" xlink:href="#linear-gradient-5"/><linearGradient id="linear-gradient-7" x1="116.6" y1="13.17" x2="116.6" y2="18.96" xlink:href="#linear-gradient-5"/></defs><title>form</title><g class="cls-1"><g id="form"><rect class="cls-2" x="41.36" y="58.12" width="2.71" height="28.12" rx="0.71"/><rect class="cls-3" x="41.36" y="89.48" width="2.71" height="11.53" rx="0.71"/><path class="cls-4" d="M59.55,189.05h86.91c9.3,0,16.84-5.53,16.84-12.35V22.39c0-6.81-7.54-12.34-16.84-12.34H59.55c-9.3,0-16.84,5.53-16.84,12.34V176.7C42.71,183.52,50.25,189.05,59.55,189.05Z"/><path class="cls-5" d="M60.51,11.06h85c9.4,0,17,6,17,13.34v1.9c0-7.36-7.63-13.33-17-13.33h-85c-9.4,0-17,6-17,13.33V24.4C43.49,17,51.11,11.06,60.51,11.06Z"/><path class="cls-6" d="M145,188.17H61c-9.3,0-16.84-4.94-16.84-11v-1.58c0,6.09,7.54,11,16.84,11H145c9.31,0,16.85-4.94,16.85-11v1.58C161.89,183.23,154.35,188.17,145,188.17Z"/><path class="cls-7" d="M160.21,23.43V175.67c0,5.17-5.73,9.33-12.78,9.33H58.59c-7.06,0-12.79-4.16-12.79-9.33V23.43c0-4.64,4.63-8.44,10.64-9.16a11.92,11.92,0,0,1,2.15-.17H74.18c2,0,3.59,1.17,3.59,2.63s1.59,2.66,3.58,2.66h43.32c2,0,3.58-1.21,3.58-2.66s1.6-2.63,3.58-2.63h15.6C154.48,14.1,160.21,18.26,160.21,23.43Z"/><path class="cls-8" d="M158.94,23.22V166.71c0,4.87-5.67,8.79-12.65,8.79H58.45c-7,0-12.65-3.92-12.65-8.79V23.22c0-4.37,4.58-7.95,10.52-8.64a13.87,13.87,0,0,1,2.13-.15H73.87c2,0,3.54,1.1,3.54,2.47S79,19.42,81,19.42h42.84c2,0,3.54-1.15,3.54-2.52s1.58-2.47,3.54-2.47h15.42C153.27,14.43,158.94,18.35,158.94,23.22Z"/><path class="cls-9" d="M154.09,26.16V175.5L56.32,14.63a9.23,9.23,0,0,1,2-.2H73a3.33,3.33,0,0,1,3.37,3.3,3.38,3.38,0,0,0,3.38,3.35H120.6A3.37,3.37,0,0,0,124,17.73a3.33,3.33,0,0,1,3.38-3.3H142A11.88,11.88,0,0,1,154.09,26.16Z"/><circle class="cls-10" cx="103.01" cy="181.87" r="2.11"/><circle class="cls-11" cx="103.01" cy="181.87" r="1.8"/><rect class="cls-10" x="68.73" y="179.93" width="3.55" height="3.55" rx="0.41"/><polygon class="cls-10" points="133.29 181.71 136.67 183.66 136.67 179.76 133.29 181.71"/><path class="cls-12" d="M112.72,17.31H93.31a.57.57,0,0,1-.54-.6h0a.58.58,0,0,1,.54-.61h19.41a.58.58,0,0,1,.54.61h0A.57.57,0,0,1,112.72,17.31Z"/><path class="cls-13" d="M89.26,17.78a1.11,1.11,0,1,0-1-1.1,1,1,0,0,0,1,1.1Z"/><path class="cls-14" d="M116.6,17.78a1.11,1.11,0,1,0-1-1.1,1,1,0,0,0,1,1.1Z"/><path class="cls-8" d="M146,19.42c7.11,0,12.87,3.92,12.87,8.76V162.65c0,3.27.61,7.25-1.5,9.67-3.08,3.54-7.13,4.87-14.9,4.52H58.68c-7.11,0-12.88-3.92-12.88-8.76V28.18c0-4.84,5.77-8.76,12.88-8.76H146Z"/><rect class="cls-15" x="76.43" y="53.86" width="19.04" height="3.77"/><rect class="cls-15" x="102.73" y="53.86" width="45.06" height="3.77"/><rect class="cls-15" x="76.43" y="60.6" width="39.39" height="3.78"/><rect class="cls-15" x="123.07" y="60.6" width="24.71" height="3.78"/><rect class="cls-15" x="76.43" y="67.33" width="29.21" height="3.78"/><rect class="cls-15" x="112.9" y="67.33" width="34.89" height="3.78"/><rect class="cls-15" x="76.43" y="81.89" width="13.37" height="3.77"/><rect class="cls-15" x="97.06" y="81.89" width="39.03" height="3.77"/><rect class="cls-15" x="143.34" y="81.89" width="4.45" height="3.77"/><rect class="cls-15" x="76.43" y="88.62" width="38.76" height="3.77"/><rect class="cls-15" x="122.44" y="88.62" width="25.34" height="3.77"/><rect class="cls-15" x="76.43" y="95.35" width="23.37" height="3.77"/><rect class="cls-15" x="107.05" y="95.35" width="40.73" height="3.77"/><rect class="cls-15" x="76.43" y="109.91" width="51.98" height="3.78"/><rect class="cls-15" x="135.66" y="109.91" width="12.12" height="3.78"/><rect class="cls-15" x="76.43" y="116.64" width="21.97" height="3.78"/><rect class="cls-15" x="105.65" y="116.64" width="42.14" height="3.78"/><rect class="cls-15" x="76.43" y="123.38" width="6.13" height="3.77"/><rect class="cls-15" x="89.81" y="123.38" width="29.64" height="3.77"/><rect class="cls-15" x="126.7" y="123.38" width="21.09" height="3.77"/><path class="cls-16" d="M56.32,53.86V71.11h15.4V53.86ZM69,68.06H59V56.91H69Z"/><path class="cls-16" d="M56.32,81.89V99.13h15.4V81.89ZM69,96.09H59V84.93H69Z"/><path class="cls-16" d="M56.32,109.91v17.24h15.4V109.91ZM69,124.11H59V113H69Z"/><rect class="cls-15" x="76.43" y="136.17" width="51.98" height="3.78"/><rect class="cls-15" x="135.66" y="136.17" width="12.12" height="3.78"/><rect class="cls-15" x="76.43" y="142.9" width="21.97" height="3.78"/><rect class="cls-15" x="105.65" y="142.9" width="42.14" height="3.78"/><rect class="cls-15" x="76.43" y="149.64" width="6.13" height="3.77"/><rect class="cls-15" x="89.81" y="149.64" width="29.64" height="3.77"/><rect class="cls-15" x="126.7" y="149.64" width="21.09" height="3.77"/><path class="cls-16" d="M56.32,136.17v17.24h15.4V136.17ZM69,150.37H59V139.21H69Z"/><polygon class="cls-17" points="62.96 66.92 58.09 59.51 60.59 57.45 63.47 61.82 71.67 53.86 73.71 56.49 62.96 66.92"/><polygon class="cls-17" points="62.96 94.95 58.09 87.53 60.59 85.47 63.47 89.84 71.67 81.89 73.71 84.52 62.96 94.95"/><rect class="cls-16" x="55.22" y="26.64" width="94.16" height="17.5" rx="3.19"/><text class="cls-18" transform="translate(60.17 40.13)">Open Recruitment</text></g></g></svg>