<svg xmlns="http://www.w3.org/2000/svg" viewBox="0 0 200 200"><defs><style>.cls-1{fill:#25c6d8;}.cls-2,.cls-3{fill:#fff;}.cls-2{opacity:0.3;}.cls-3{opacity:0.2;}.cls-4{fill:#d8f1f4;}.cls-5{fill:#93e0e2;}.cls-6{fill:#48dee5;}.cls-7{fill:#39aabc;}.cls-8{fill:#248da5;}</style></defs><title>link</title><g id="Layer_3" data-name="Layer 3"><path class="cls-1" d="M10,150.94V46H33.2v5.49a3.47,3.47,0,0,1-1,2.52,3.68,3.68,0,0,1-2.69,1H21.66v86.88h7.81a3.64,3.64,0,0,1,2.69,1,3.47,3.47,0,0,1,1,2.52v5.49Z"/><path class="cls-1" d="M166.8,150.94v-5.49a3.43,3.43,0,0,1,1-2.52,3.64,3.64,0,0,1,2.69-1h7.81V55h-7.81a3.68,3.68,0,0,1-2.69-1,3.43,3.43,0,0,1-1-2.52V46H190v105Z"/><path class="cls-1" d="M109.28,88.87a18.25,18.25,0,0,1,0,25.8L92.42,131.54a18.25,18.25,0,0,1-25.81-25.81L86.34,86c-1.28,5.13-1,8.75,0,11.53,1.19,3.17,1.28,2.56-.73,4.44L74.23,113.35A7.47,7.47,0,0,0,84.8,123.92l16.87-16.87a7.48,7.48,0,0,0,0-10.57c-.73-.73.09-4,3.35-4.69C110.56,90.62,102.89,83,109.28,88.87Z"/><path class="cls-1" d="M93.49,105.23a18.27,18.27,0,0,1,0-25.8l16.87-16.87a18.25,18.25,0,0,1,25.8,25.81L116.43,108.1c1.29-5.13,1-8.75,0-11.53-1.18-3.17-1.28-2.56.74-4.44l11.38-11.38A7.47,7.47,0,1,0,118,70.18L101.11,87.05a7.47,7.47,0,0,0,0,10.57c.73.73-.09,4-3.34,4.69C92.21,103.48,99.89,111.13,93.49,105.23Z"/><path class="cls-2" d="M106.86,111.66h0a3.87,3.87,0,0,1,0,5.44l-6.66,6.65a3.85,3.85,0,0,1-5.44,0h0a3.87,3.87,0,0,1,0-5.44l6.66-6.65A3.85,3.85,0,0,1,106.86,111.66Z"/><path class="cls-2" d="M114.63,63.15h0a3.87,3.87,0,0,1,0,5.44L108,75.25a3.87,3.87,0,0,1-5.44,0h0a3.87,3.87,0,0,1,0-5.44l6.66-6.66A3.87,3.87,0,0,1,114.63,63.15Z"/><path class="cls-2" d="M91.51,127h0a3.87,3.87,0,0,1,0,5.44h0a3.87,3.87,0,0,1-5.44,0h0a3.85,3.85,0,0,1,0-5.44h0A3.85,3.85,0,0,1,91.51,127Z"/><path class="cls-3" d="M135.81,65.07h0a3.85,3.85,0,0,1,0,5.44h0a3.87,3.87,0,0,1-5.44,0h0a3.87,3.87,0,0,1,0-5.44h0A3.85,3.85,0,0,1,135.81,65.07Z"/><circle class="cls-4" cx="49.79" cy="41.54" r="3.4"/><circle class="cls-5" cx="59.31" cy="32.88" r="5.1"/><circle class="cls-6" cx="72.62" cy="22.75" r="6.8"/><circle class="cls-1" cx="93.14" cy="16.52" r="8.5"/><circle class="cls-7" cx="118.66" cy="21.82" r="10.2"/><circle class="cls-8" cx="145.15" cy="38.14" r="12.27"/><circle class="cls-4" cx="157.4" cy="158.27" r="3.4"/><circle class="cls-5" cx="147.93" cy="166.98" r="5.1"/><circle class="cls-6" cx="134.65" cy="177.16" r="6.8"/><circle class="cls-1" cx="114.16" cy="183.48" r="8.5"/><circle class="cls-7" cx="88.62" cy="178.3" r="10.2"/><circle class="cls-8" cx="62.06" cy="162.09" r="12.27"/></g></svg>