<svg xmlns="http://www.w3.org/2000/svg" xmlns:xlink="http://www.w3.org/1999/xlink" viewBox="0 0 200 200"><defs><style>.cls-1{fill:none;}.cls-2{fill:#25c6d8;}.cls-12,.cls-3{fill:#248da5;}.cls-3{opacity:0.4;}.cls-4{clip-path:url(#clip-path);}.cls-5{fill:#047284;}.cls-6{fill:#d8f1f4;}.cls-7{fill:#96dde2;}.cls-8{fill:#95d6e3;}.cls-9{fill:#3eadc6;}.cls-10{fill:#cee9e5;}.cls-11{fill:#79cfe1;}.cls-13{fill:#b7e1e5;}.cls-14{fill:#00a7c0;}.cls-15{fill:#00b3c8;}</style><clipPath id="clip-path"><path class="cls-1" d="M179.5,11.44H20.5C9.67,11.44.9,20.88.9,32.52V132c0,11.64,8.77,21.08,19.6,21.08h159c10.83,0,19.6-9.44,19.6-21.08V32.52C199.1,20.88,190.33,11.44,179.5,11.44Zm-40.78,105.5a7.55,7.55,0,1,1,7.54-7.55A7.55,7.55,0,0,1,138.72,116.94Zm22.58,0a7.55,7.55,0,1,1,7.54-7.55A7.55,7.55,0,0,1,161.3,116.94Zm22.54,0a7.55,7.55,0,1,1,7.54-7.55A7.55,7.55,0,0,1,183.84,116.94Z"/></clipPath></defs><title>sambat</title><g id="Sambat"><path class="cls-2" d="M128.89,187l40-29.21a8.12,8.12,0,0,0-1.68-14l-30.37-12.64a8.12,8.12,0,0,0-11,5.69l-9.6,41.84A8.12,8.12,0,0,0,128.89,187Z"/><path class="cls-3" d="M172.65,146l-39.48-16.42a4.79,4.79,0,0,0-6.51,3.35l-7.44,32.45h39.24l15.18-11.09A4.79,4.79,0,0,0,172.65,146Z"/><path class="cls-2" d="M179.5,11.44H20.5C9.67,11.44.9,20.88.9,32.52V132c0,11.64,8.77,21.08,19.6,21.08h159c10.83,0,19.6-9.44,19.6-21.08V32.52C199.1,20.88,190.33,11.44,179.5,11.44Zm-40.78,105.5a7.55,7.55,0,1,1,7.54-7.55A7.55,7.55,0,0,1,138.72,116.94Zm22.58,0a7.55,7.55,0,1,1,7.54-7.55A7.55,7.55,0,0,1,161.3,116.94Zm22.54,0a7.55,7.55,0,1,1,7.54-7.55A7.55,7.55,0,0,1,183.84,116.94Z"/><g class="cls-4"><path class="cls-5" d="M103,153.56l8.25-.16-4-29.89c-5.24-18.26-23.76-11-23.76-11-15,5.41-12.74,22.63-12.74,22.63Z"/><path class="cls-6" d="M101.38,155.31l3.4-23.7s4.54-12.86-5.16-19.05L62.8,96.13l-25.73.51L-6.28,123.42,9.61,172.56Z"/><path class="cls-5" d="M10.54,124.69c-17-3.53,10.87,17.69,10.87,17.69S22.13,127.62,10.54,124.69Z"/><path class="cls-5" d="M24.22,140.6c-.84-17.68-18.21-20-18.21-20C-10.31,119.37-2.21,136-2.21,136L2.8,158,9.61,172.6Z"/><path class="cls-6" d="M36.67,77.91l.54,27.33,28.9-.57S58.79,94,62,77.41Z"/><path class="cls-7" d="M51.88,101c2.66,1.64,8.3,5.12,11.44,3a3,3,0,0,0,1.34-2.16,40.22,40.22,0,0,1-2.48-24.36l-25.51.5,0,2.49C40.06,88.39,44.3,96.29,51.88,101Z"/><path class="cls-6" d="M35.89,78.32s-5-2-10.84-14.19c0,0-12.45-14.24-4.15-30.86,0,0,4.83-14,29.59-10.6C50.49,22.67,53.44,59.9,35.89,78.32Z"/><path class="cls-6" d="M66.44,85.17,68,80.82l4.23-16.13a16.74,16.74,0,0,0,.1-6.8,16.59,16.59,0,0,1-.2-7c2.64-11.59-3.4-18-3.4-18C62,22.12,46,22.07,46,22.07c-19.85.91-21.59,20.1-21.59,20.1-3.27,12.77,6.86,23.44,6.88,23.46.81.85.37,5.05.61,6.25,1,5.1,5.9,8.25,10.21,10.43,4.74,2.38,10.47,4.93,15.78,5.43C59.87,87.94,65.55,87.66,66.44,85.17Z"/><path class="cls-8" d="M72.79,112.24s36.53,6.55,26.83.36L62.8,96.17l2.61,7.35-5,15.1L37.07,96.68-6.28,123.46q3.92,12.11,7.82,24.22c2,6.24,20.46,4.44,41.22.23C71.55,142.09,72.79,112.24,72.79,112.24Z"/><polygon class="cls-9" points="56.93 101.63 56.89 115.3 51.76 110.48 56.93 101.63"/><path class="cls-10" d="M63.77,123.54a2,2,0,1,1-2-1.91A1.95,1.95,0,0,1,63.77,123.54Z"/><path class="cls-10" d="M64.47,159a2,2,0,1,1-2-1.91A2,2,0,0,1,64.47,159Z"/><path class="cls-11" d="M56.92,101.32S40.71,95.38,36.8,89.23l-4.58,9.16,17.29,15.94,7.42-12.7"/><path class="cls-12" d="M16.12,26.67c-.82,3.91.94,6.53-1.76,9.9-3,3.75-1.8,7.58-.1,11.43,3.08,6.94,6.16,13.8,10.83,19.83a38.75,38.75,0,0,0,4.31,4.75c.27.24,1.59,1,1.66,1.39,0,0-2.93-14.84,5-12.95l1.36-.11S34.51,52.24,40,47.83c-2.73-3.37-.7-10.24-.18-11.23,0,0,1.18-6.17,23.47-5.84,0,0,18.27,1.18,20.37-9.43,0,0-7,3.22-11.35.23,0,0,5.36-1.94,6.16-10.12,0,0-16.17,3-27.21,1.68C51.29,13.12,18.89,12.61,16.12,26.67Z"/><path class="cls-13" d="M34.26,67.44a4.42,4.42,0,0,1-2.78,1.06c-3.16.16-6-2.62-6.29-6.22s2-6.63,5.15-6.79a5.57,5.57,0,0,1,4,1.53C36,58.5,36.24,61.43,36,63.47A6.07,6.07,0,0,1,34.26,67.44Z"/><path class="cls-11" d="M31.84,58.75c-.31-1.88-4,.18-3.36,1.21a5.7,5.7,0,0,0,1.63,1.38,2.83,2.83,0,0,1,1.31,2c0,.11.06.43-.05.52-.47.38-2.21-1.36-2.59-1.73a3.17,3.17,0,0,1-.66-3,1.89,1.89,0,0,1,2-1.55c.86,0,1.73,0,1.75,1.06,0,0,0,.21,0,.11Z"/><path class="cls-11" d="M30.75,60.79c.37-.42.77-.12,1.2.15A1.81,1.81,0,0,1,32.71,62a4.49,4.49,0,0,1-.27,3.18,2.42,2.42,0,0,1-2,1.23c-1.15,0-1.56-1-1.67-1.93,0-.25-.09-.87.15-1s.49.22.69.39a1.6,1.6,0,0,0,1,.31,2.11,2.11,0,0,0,1.67-.88,1.11,1.11,0,0,0,.15-.31c0,.64,0,.79-.08.44a1.88,1.88,0,0,0-.24-.44c-.3-.42-.77-.69-1.09-1.09-.16-.19-.47-.85-.28-1.07Z"/><path class="cls-12" d="M44.06,160.3c4.08,0,6.66,9,6.66,9L29.87,101.13-6.28,123.46,8,167.55C17.71,167.15,34.33,159.79,44.06,160.3Z"/><path class="cls-5" d="M29.87,101.13l20.85,68.14v3.26L25.64,147.86s-2.67-4.31.78-7l5.69-5.67-4.19-2.89s-5.86-2.7-5.26-8l1.27-19.88Z"/><path class="cls-12" d="M73.09,100.76l22.42,10s12.71,3.09,10.38,16.24l-2.14,26.38L71.27,167Z"/><path class="cls-11" d="M70.53,101.75s-1.59-5.7-8.94-10.39l1.33,19.71S66.75,100.9,70.53,101.75Z"/><path class="cls-9" d="M71.37,110.91l-.84-9.16c-2.23-.5-4.15,2.64-5.71,5.21Z"/><polygon class="cls-14" points="55.44 106.6 54.83 105.5 50.9 111.79 54.4 112.96 55.44 106.6"/><path class="cls-14" d="M64.82,107l1.1-1.76s4.39,3.55-.07,7.54A20.15,20.15,0,0,0,64.82,107Z"/><path class="cls-15" d="M55.44,106.37s3.49,3,9.37.36c1.33,1.63,1.37,3.73,1,5.78l-2.94,6.4-4.3.09-4.2-6.27S54,111.34,55.44,106.37Z"/><polygon class="cls-14" points="58.6 119 57.78 163.32 66.36 162.69 62.9 118.91 58.6 119"/><path class="cls-5" d="M73.09,100.76l5.77,2.58,4.52,19s2.17,4.9-.81,6.25l-5.33,3.26,7.7,4.66s4,2.43,1.66,6.18L71.92,172.81l-.58-5.08Z"/></g></g></svg>