<svg xmlns="http://www.w3.org/2000/svg" xmlns:xlink="http://www.w3.org/1999/xlink" viewBox="0 0 200 200"><defs><clipPath id="clip-path"><rect x="34.01" y="36.17" width="132.09" height="87.47" rx="4.27" fill="none"/></clipPath><linearGradient id="linear-gradient" x1="35.26" y1="37.46" x2="164.86" y2="122.34" gradientUnits="userSpaceOnUse"><stop offset="0" stop-color="#fff"/><stop offset="0.1" stop-color="#f2fffe"/><stop offset="0.3" stop-color="#dffffc"/><stop offset="0.51" stop-color="#d3fffb"/><stop offset="0.72" stop-color="#cffffb"/><stop offset="0.85" stop-color="#d1fdfb"/><stop offset="0.9" stop-color="#d6f5fc"/><stop offset="0.95" stop-color="#e1e9fd"/><stop offset="0.98" stop-color="#efd7fe"/><stop offset="1" stop-color="#f7ccff"/></linearGradient></defs><title>store</title><g id="Store"><rect x="30.32" y="31.29" width="139.47" height="97.23" rx="4.58" fill="#248da5"/><path d="M184,164.11a4.6,4.6,0,0,1-4.6,4.6H20.59a4.6,4.6,0,0,1-4.6-4.6l14-30.63c1.22-3.63,3.4-4.6,5.94-4.6H162.63c2.91.25,5.9.25,7.52,4.6Z" fill="#d8f1f4"/><path d="M170.11,145.86a4.36,4.36,0,0,1-4.36,4.36H34.25a4.36,4.36,0,0,1-4.36-4.36l3.42-9.68a5.85,5.85,0,0,1,6-4.36H158.77c2.76.24,5.58.24,7.11,4.36Z" fill="#262626"/><path d="M126.86,162.71c0,1.28-.75,2.32-1.67,2.32H74.81c-.92,0-1.67-1-1.67-2.32l1.31-5.19c.44-1.84,1.39-2.32,2.31-2.32h45.76c1,.12,2.13.12,2.72,2.32Z" fill="#f9f9f9" stroke="#fff" stroke-miterlimit="10"/><path d="M36.37,34H163.73a4.47,4.47,0,0,1,4.47,4.47v82.81a4.47,4.47,0,0,1-4.47,4.47H36.37a4.47,4.47,0,0,1-4.47-4.47V38.5A4.48,4.48,0,0,1,36.37,34Z" fill="#333"/><g clip-path="url(#clip-path)"><rect x="34.01" y="36.17" width="132.09" height="87.47" rx="4.56" fill="#fff"/><rect x="34.01" y="36.17" width="132.09" height="87.47" rx="4.56" opacity="0.9" fill="url(#linear-gradient)"/></g><path d="M66.66,119.21a11,11,0,0,1-3.66-.64,9.79,9.79,0,0,1-3.26-2l2.12-2.54a10.51,10.51,0,0,0,2.29,1.44,6.15,6.15,0,0,0,2.58.54,3.14,3.14,0,0,0,1.73-.41,1.29,1.29,0,0,0,.62-1.13v0a1.33,1.33,0,0,0-.13-.61,1.22,1.22,0,0,0-.49-.5,5.27,5.27,0,0,0-1-.47c-.43-.15-1-.32-1.67-.49a21.84,21.84,0,0,1-2.25-.67,6.51,6.51,0,0,1-1.7-.92,3.75,3.75,0,0,1-1.09-1.37,4.82,4.82,0,0,1-.38-2v-.05a4.78,4.78,0,0,1,.41-2A4.57,4.57,0,0,1,62,103.79a5.26,5.26,0,0,1,1.8-1,7.3,7.3,0,0,1,2.3-.34,9.35,9.35,0,0,1,6.06,2.07l-1.87,2.7A11.76,11.76,0,0,0,68.1,106,5.62,5.62,0,0,0,66,105.6a2.57,2.57,0,0,0-1.58.41,1.23,1.23,0,0,0-.52,1v0a1.52,1.52,0,0,0,.15.69,1.33,1.33,0,0,0,.55.52,4.88,4.88,0,0,0,1.09.44c.45.14,1,.31,1.73.49a16.78,16.78,0,0,1,2.21.74,6.2,6.2,0,0,1,1.64,1,3.63,3.63,0,0,1,1,1.34,4.45,4.45,0,0,1,.34,1.84v0a5.11,5.11,0,0,1-.44,2.16A4.34,4.34,0,0,1,71,117.89a5.55,5.55,0,0,1-1.87,1A8.37,8.37,0,0,1,66.66,119.21Z" fill="#25c6d8"/><path d="M79.54,106h-5v-3.31H88.09V106h-5v13H79.54Z" fill="#25c6d8"/><path d="M98.75,119.25a9,9,0,0,1-3.47-.66,8.68,8.68,0,0,1-2.73-1.79,8.13,8.13,0,0,1-1.8-2.66,8.51,8.51,0,0,1-.64-3.27v-.05a8.33,8.33,0,0,1,.65-3.27,8.51,8.51,0,0,1,1.81-2.68,8.41,8.41,0,0,1,2.75-1.82,9.48,9.48,0,0,1,7,0,8.47,8.47,0,0,1,2.74,1.8,7.91,7.91,0,0,1,1.79,2.65,8.33,8.33,0,0,1,.64,3.27v0a8.26,8.26,0,0,1-.65,3.27,8.32,8.32,0,0,1-4.55,4.5A9.08,9.08,0,0,1,98.75,119.25Zm0-3.31a5,5,0,0,0,2-.39,4.42,4.42,0,0,0,1.55-1.1,5,5,0,0,0,1-1.61,5.38,5.38,0,0,0,.36-2v-.05a5.44,5.44,0,0,0-.36-2,5,5,0,0,0-1-1.63,5.07,5.07,0,0,0-1.58-1.11,4.77,4.77,0,0,0-2-.4,4.94,4.94,0,0,0-2,.39,4.57,4.57,0,0,0-1.53,1.1,5,5,0,0,0-1,1.62,5.29,5.29,0,0,0-.36,2v0a5.44,5.44,0,0,0,.36,2,4.92,4.92,0,0,0,1,1.63,4.73,4.73,0,0,0,3.55,1.51Z" fill="#25c6d8"/><path d="M110.64,102.67h7.45a6.44,6.44,0,0,1,4.75,1.65,5.05,5.05,0,0,1,1.4,3.73v0a5.06,5.06,0,0,1-1,3.22,5.61,5.61,0,0,1-2.53,1.83l4,5.82h-4.2L117,113.76h-2.82V119h-3.58Zm7.22,7.92a3,3,0,0,0,2-.63,2.11,2.11,0,0,0,.71-1.68v0a2.07,2.07,0,0,0-.74-1.75,3.29,3.29,0,0,0-2.07-.58h-3.57v4.68Z" fill="#25c6d8"/><path d="M127.48,102.67h12.27v3.19H131v3.31h7.68v3.19H131v3.42h8.85V119H127.48Z" fill="#25c6d8"/><path d="M84.05,80.49H96.32v3.19H87.59V87h7.68v3.19H87.59V93.6h8.85v3.2H84.05Z" fill="#248da5"/><path d="M99.65,80.49h3.87l4.28,6.9,4.29-6.9H116V96.8h-3.54V86.15l-4.59,7h-.1l-4.54-6.89V96.8H99.65Z" fill="#248da5"/><rect x="32.64" y="36.17" width="133.46" height="6.32" fill="#05b7c9"/><polygon points="32.88 42.49 2.29 74.78 30.19 74.78 51.85 42.49 32.88 42.49" fill="#25c6d8"/><polygon points="146.75 42.49 169.78 74.78 197.68 74.78 165.71 42.49 146.75 42.49" fill="#25c6d8"/><polygon points="108.81 42.49 113.98 74.78 141.88 74.78 127.78 42.49 108.81 42.49" fill="#25c6d8"/><polygon points="51.92 42.49 30.28 74.78 58.18 74.78 70.88 42.49 51.92 42.49" fill="#fff"/><polygon points="89.85 42.49 86.08 74.78 113.98 74.78 108.81 42.49 89.85 42.49" fill="#fff"/><polygon points="127.78 42.49 141.88 74.78 169.78 74.78 146.75 42.49 127.78 42.49" fill="#fff"/><polygon points="70.88 42.49 58.18 74.78 86.08 74.78 89.85 42.49 70.88 42.49" fill="#25c6d8"/><path d="M2.29,74.78c-2.13,4.91,2.48,8.86,10.42,8.86s15.71-4,17.46-8.86Z" fill="#248da5"/><path d="M30.29,74.78c-1.47,4.91,3.69,8.86,11.63,8.86s15.16-4,16.25-8.86Z" fill="#a6a8ab"/><path d="M58.14,74.78C57.33,79.69,63,83.64,71,83.64s14.63-4,15.06-8.86Z" fill="#248da5"/><path d="M86.14,74.78c-.14,4.91,6.08,8.86,14,8.86s14.1-4,13.87-8.86Z" fill="#a6a8ab"/><path d="M113.94,74.78c.51,4.91,7.26,8.86,15.2,8.86s13.57-4,12.69-8.86Z" fill="#248da5"/><path d="M169.79,74.78c1.83,4.91,9.65,8.86,17.6,8.86s12.49-4,10.29-8.86Z" fill="#248da5"/><path d="M141.94,74.78c1.18,4.91,8.47,8.86,16.41,8.86s13-4,11.48-8.86Z" fill="#a6a8ab"/></g></svg>