<svg xmlns="http://www.w3.org/2000/svg" viewBox="0 0 200 200"><defs><style>.cls-1{isolation:isolate;}.cls-2{fill:#e2e2e2;}.cls-3{fill:#f9f9f9;}.cls-4,.cls-5{fill:#d8f1f4;}.cls-11,.cls-13,.cls-15,.cls-5,.cls-7,.cls-9{mix-blend-mode:multiply;}.cls-6,.cls-7{fill:#93e0e2;}.cls-8,.cls-9{fill:#48dee5;}.cls-10,.cls-11{fill:#25c6d8;}.cls-12,.cls-13{fill:#39aabc;}.cls-14,.cls-15{fill:#248da5;}.cls-16{fill:#3dd8d8;}.cls-17{fill:#75eaea;}.cls-18{fill:#3199aa;}.cls-19{fill:#8bcfdc;}.cls-20{fill:#bddde0;}.cls-21{fill:#a5dae4;}</style></defs><title>style</title><g class="cls-1"><g id="Style"><path class="cls-2" d="M96.69,27.63C43.41,35.87-10.22,86.14,6.76,126.29s65.58,6.5,79.31,41.5c7.21,18.37,26.43,36.72,50.8,28.68,18.76-6.18,59.75-32.37,62-86.38S150.46,19.31,96.69,27.63Zm33.55,154.68c-13.64,4.34-26.9-9.69-25.37-16.39,2.07-9.09,9.93-16.7,23.84-10.14S143.88,178,130.24,182.31Z"/><path class="cls-3" d="M93.82,20.66C40.53,28.89-13.1,79.17,3.88,119.32s65.58,6.5,79.31,41.5c7.21,18.37,26.43,36.72,50.8,28.68,18.77-6.19,59.76-32.37,62-86.38S147.58,12.34,93.82,20.66Zm33.54,154.68c-13.64,4.34-26.9-9.69-25.37-16.4,2.07-9.08,9.93-16.69,23.84-10.13S141,171,127.36,175.34Z"/><path class="cls-4" d="M38,102.52a13.17,13.17,0,1,1-17.2-7.15A13.16,13.16,0,0,1,38,102.52Z"/><path class="cls-5" d="M22.16,98.73a13.16,13.16,0,0,1,16.38,5.52,12.44,12.44,0,0,0-.56-1.73,13.17,13.17,0,1,0-24.35,10.06,14.45,14.45,0,0,0,.82,1.62A13.18,13.18,0,0,1,22.16,98.73Z"/><path class="cls-6" d="M53.59,66.05a13.17,13.17,0,1,1-17.2-7.15A13.17,13.17,0,0,1,53.59,66.05Z"/><path class="cls-7" d="M37.77,62.26a13.16,13.16,0,0,1,16.38,5.52,12.44,12.44,0,0,0-.56-1.73A13.17,13.17,0,1,0,29.24,76.11a12.94,12.94,0,0,0,.82,1.62A13.16,13.16,0,0,1,37.77,62.26Z"/><path class="cls-8" d="M89.91,43.54a13.17,13.17,0,1,1-17.2-7.14A13.18,13.18,0,0,1,89.91,43.54Z"/><path class="cls-9" d="M74.1,39.76a13.15,13.15,0,0,1,16.38,5.51,12.5,12.5,0,0,0-.57-1.73A13.17,13.17,0,1,0,66.39,55.23,13.16,13.16,0,0,1,74.1,39.76Z"/><path class="cls-10" d="M129.78,47.75A12.54,12.54,0,1,1,113.4,41,12.53,12.53,0,0,1,129.78,47.75Z"/><path class="cls-11" d="M114.72,44.15a12.54,12.54,0,0,1,15.6,5.25,11.76,11.76,0,0,0-.54-1.65,12.54,12.54,0,1,0-22.4,11.13A12.54,12.54,0,0,1,114.72,44.15Z"/><path class="cls-12" d="M168,59a13.17,13.17,0,1,1-17.2-7.15A13.17,13.17,0,0,1,168,59Z"/><path class="cls-13" d="M152.2,55.2a13.16,13.16,0,0,1,16.38,5.52A12.5,12.5,0,0,0,168,59,13.17,13.17,0,0,0,143.66,69a12.46,12.46,0,0,0,.83,1.63A13.15,13.15,0,0,1,152.2,55.2Z"/><path class="cls-14" d="M186.54,95.57a13.17,13.17,0,1,1-17.2-7.14A13.18,13.18,0,0,1,186.54,95.57Z"/><path class="cls-15" d="M170.73,91.78a13.16,13.16,0,0,1,16.38,5.53,12.2,12.2,0,0,0-.57-1.74,13.17,13.17,0,1,0-24.34,10.06,11.71,11.71,0,0,0,.82,1.62A13.17,13.17,0,0,1,170.73,91.78Z"/><path class="cls-4" d="M50.25,109.59a6.64,6.64,0,1,1-8.67-3.6A6.65,6.65,0,0,1,50.25,109.59Z"/><path class="cls-10" d="M119.82,56.36a6.64,6.64,0,1,1-8.67-3.6A6.63,6.63,0,0,1,119.82,56.36Z"/><path class="cls-4" d="M42.46,125.1a3.44,3.44,0,1,1-4.5-1.87A3.44,3.44,0,0,1,42.46,125.1Z"/><path class="cls-10" d="M121.92,69.82A3.44,3.44,0,1,1,117.43,68,3.43,3.43,0,0,1,121.92,69.82Z"/><path class="cls-16" d="M83.54,60.81a6.58,6.58,0,1,1-8.6-3.57A6.6,6.6,0,0,1,83.54,60.81Z"/><path class="cls-8" d="M97.34,65.64a3.54,3.54,0,1,1-4.62-1.92A3.53,3.53,0,0,1,97.34,65.64Z"/><path class="cls-17" d="M89.9,77a6.29,6.29,0,1,1-8.21-3.41A6.28,6.28,0,0,1,89.9,77Z"/><path class="cls-18" d="M168,117.49a4,4,0,1,1-5.21-2.17A4,4,0,0,1,168,117.49Z"/><path class="cls-18" d="M184,115.21a6.45,6.45,0,1,1-8.42-3.5A6.45,6.45,0,0,1,184,115.21Z"/><path class="cls-14" d="M133.44,86.24s15.85,7.2,30.61-23.58C164.05,62.66,133.11,67.61,133.44,86.24Z"/><path class="cls-19" d="M130.79,87.91c-1.11-1.51-4.07-1.17-6.58.72L117,94a6.27,6.27,0,0,0,3.73,5.32L128.16,94C130.7,92.15,131.9,89.41,130.79,87.91Z"/><path class="cls-20" d="M117,94,9,175.21a2,2,0,0,0,2.36,3.2l109.4-79.06A6.27,6.27,0,0,1,117,94Z"/><path class="cls-21" d="M131.77,93.53a5.1,5.1,0,0,1-7.14-1.08h0a5.11,5.11,0,0,1,1.08-7.14l4.11-3A5.1,5.1,0,0,1,137,83.37h0a5.11,5.11,0,0,1-1.08,7.13Z"/></g></g></svg>