<?xml version="1.0" encoding="utf-8"?>
<!-- Generator: Adobe Illustrator 19.0.0, SVG Export Plug-In . SVG Version: 6.00 Build 0)  -->
<svg version="1.1" id="Capa_1" xmlns="http://www.w3.org/2000/svg" xmlns:xlink="http://www.w3.org/1999/xlink" x="0px" y="0px"
	 viewBox="-498 499.6 82.4 82.4" style="enable-background:new -498 499.6 82.4 82.4;" xml:space="preserve">
<style type="text/css">
	.st0{fill:#FFFFFF;}
</style>
<g>
	<path class="st0" d="M-415.6,564.4v15.7H-498v-15.7h66.9c0-3.3-0.5-7.1-2.6-9.9c-1.9-2.4-4.7-3.8-8.5-4.1c-0.3,0.6-0.9,1-1.6,1
		h-3.2c-1,0-1.8-0.8-1.8-1.8c0-1,0.8-1.8,1.8-1.8h3.2c0.8,0,1.5,0.6,1.7,1.3c4.2,0.3,7.4,1.9,9.5,4.7c2.3,3.1,3,7.1,2.9,10.7
		L-415.6,564.4L-415.6,564.4z M-456.8,535.9c9.5,0,17.2-7.7,17.2-17.2c0-9.5-7.7-17.2-17.2-17.2c-9.5,0-17.2,7.7-17.2,17.2
		C-474,528.2-466.3,535.9-456.8,535.9z M-435.8,556.2c-1.2-1.6-3-2.6-5.5-3c-0.7,0.6-1.6,0.9-2.6,0.9h-3.2c-2.4,0-4.3-2-4.3-4.4
		c0-2.4,2-4.3,4.3-4.3h3.2c1.3,0,2.4,0.5,3.2,1.4c3.8,0.5,6.8,2,9,4.4c0-0.1,0-0.2,0-0.3l-0.8-3.9c-1.9-6.2-7-11-13.3-12.7
		c-2.9,2.7-6.8,4.4-11.1,4.4c-4.3,0-8.2-1.7-11.1-4.4c-8.1,2.1-14.1,9.5-14.1,18.3v9.4h48.3C-434,559.6-434.7,557.6-435.8,556.2z"/>
</g>
</svg>
