<?xml version="1.0" encoding="utf-8"?>
<!-- Generator: Adobe Illustrator 19.0.0, SVG Export Plug-In . SVG Version: 6.00 Build 0)  -->
<svg version="1.1" id="Capa_1" xmlns="http://www.w3.org/2000/svg" xmlns:xlink="http://www.w3.org/1999/xlink" x="0px" y="0px"
	 viewBox="-299 301 480 480" style="enable-background:new -299 301 480 480;" xml:space="preserve">
<style type="text/css">
	.st0{fill:#FFFFFF;}
</style>
<g>
	<g>
		<path class="st0" d="M-223.6,690c16.1-15.1,16.9-40.4,1.8-56.5c-15.1-16.1-40.4-16.9-56.5-1.8c-16.1,15.1-16.9,40.4-1.8,56.5
			c0.6,0.6,1.1,1.2,1.8,1.8c-12.7,6.8-20.6,20-20.6,34.4V773c0,4.4,3.6,8,8,8c0,0,0,0,0,0h80c4.4,0,8-3.6,8-8c0,0,0,0,0,0v-48.6
			C-203.1,710-211,696.8-223.6,690z M-251,637c13.3,0,24,10.7,24,24s-10.7,24-24,24s-24-10.7-24-24C-275,647.8-264.2,637-251,637z
			 M-219,765h-64v-40.6c0-12.9,10.5-23.4,23.4-23.4h17.2c12.9,0,23.4,10.5,23.4,23.4V765z"/>
	</g>
</g>
<g>
	<g>
		<path class="st0" d="M-95.6,690c16.1-15.1,16.9-40.4,1.8-56.5s-40.4-16.9-56.5-1.8c-16.1,15.1-16.9,40.4-1.8,56.5
			c0.6,0.6,1.1,1.2,1.8,1.8c-12.7,6.8-20.6,20-20.6,34.4V773c0,4.4,3.6,8,8,8c0,0,0,0,0,0h80c4.4,0,8-3.6,8-8c0,0,0,0,0,0v-48.6
			C-75.1,710-83,696.8-95.6,690z M-123,637c13.3,0,24,10.7,24,24s-10.7,24-24,24s-24-10.7-24-24C-147,647.8-136.2,637-123,637z
			 M-91,765h-64v-40.6c0-12.9,10.5-23.4,23.4-23.4h17.2c12.9,0,23.4,10.5,23.4,23.4V765z"/>
	</g>
</g>
<g>
	<g>
		<path class="st0" d="M32.4,690c16.1-15.1,16.9-40.4,1.8-56.5s-40.4-16.9-56.5-1.8c-16.1,15.1-16.9,40.4-1.8,56.5
			c0.6,0.6,1.1,1.2,1.8,1.8c-12.7,6.8-20.6,20-20.6,34.4V773c0,4.4,3.6,8,8,8c0,0,0,0,0,0h80c4.4,0,8-3.6,8-8c0,0,0,0,0,0v-48.6
			C52.9,710,45,696.8,32.4,690z M5,637c13.3,0,24,10.7,24,24s-10.7,24-24,24s-24-10.7-24-24C-19,647.8-8.2,637,5,637z M37,765h-64
			v-40.6c0-12.9,10.5-23.4,23.4-23.4h17.2c12.9,0,23.4,10.5,23.4,23.4V765z"/>
	</g>
</g>
<g>
	<g>
		<path class="st0" d="M160.4,690c16.1-15.1,16.9-40.4,1.8-56.5s-40.4-16.9-56.5-1.8c-16.1,15.1-16.9,40.4-1.8,56.5
			c0.6,0.6,1.1,1.2,1.8,1.8C93,696.8,85.1,710,85,724.4V773c0,4.4,3.6,8,8,8c0,0,0,0,0,0h80c4.4,0,8-3.6,8-8c0,0,0,0,0,0v-48.6
			C180.9,710,173,696.8,160.4,690z M133,637c13.3,0,24,10.7,24,24s-10.7,24-24,24s-24-10.7-24-24C109,647.8,119.8,637,133,637z
			 M165,765h-64v-40.6c0-12.9,10.5-23.4,23.4-23.4h17.2c12.9,0,23.4,10.5,23.4,23.4V765z"/>
	</g>
</g>
<g>
	<g>
		<path class="st0" d="M-11,341C-11,341-11,341-11,341h-112c-4.4,0-8,3.6-8,8c0,0,0,0,0,0v144c0,4.4,3.6,8,8,8c0,0,0,0,0,0h112
			c4.4,0,8-3.6,8-8c0,0,0,0,0,0V349C-3,344.6-6.6,341-11,341z M-19,485h-96V357h96V485z"/>
	</g>
</g>
<g>
	<g>
		<path class="st0" d="M124.4,343.3c-0.3-0.4-0.7-0.7-1-1c-12.9-12.3-33.1-12.3-46.1,0l-0.3,0.3l-0.3-0.3
			c-12.9-12.3-33.1-12.3-46.1,0c-12.5,11.9-13,31.7-1,44.2c0.3,0.4,0.7,0.7,1,1l40.8,39.3c3.1,3,8,3,11.1,0l40.8-39.3
			C135.8,375.5,136.3,355.8,124.4,343.3z M112.9,375.3c-0.2,0.2-0.4,0.4-0.6,0.6l-35.2,34l-35.2-34c-6.1-5.8-6.4-15.4-0.6-21.5
			c0.2-0.2,0.4-0.4,0.6-0.6l0,0c6.7-6.3,17.2-6.3,23.8,0l5.8,5.6c3.1,3,8,3,11.1,0l5.8-5.6c6.7-6.3,17.2-6.3,23.8,0
			C118.3,359.5,118.6,369.2,112.9,375.3z"/>
	</g>
</g>
<g>
	<g>
		<path class="st0" d="M-36.6,416.2l-24-32c-2.9-3.5-8.1-4-11.7-1.1c-0.4,0.3-0.8,0.7-1.1,1.1l-24,32c-2.1,2.8-2.1,6.8,0,9.6l24,32
			c2.6,3.5,7.7,4.3,11.2,1.6c0.6-0.5,1.2-1,1.6-1.6l24-32C-34.5,423-34.5,419-36.6,416.2z M-67,439.7L-81,421l14-18.7l14,18.7
			L-67,439.7z"/>
	</g>
</g>
<g>
	<g>
		<path class="st0" d="M77,445c-35.3,0-64,28.7-64,64s28.7,64,64,64s64-28.7,64-64C141,473.7,112.3,445,77,445z M77,557
			c-26.5,0-48-21.5-48-48s21.5-48,48-48s48,21.5,48,48C125,535.5,103.5,557,77,557z"/>
	</g>
</g>
<g>
	<g>
		<path class="st0" d="M85,525c0,4.4-3.6,8-8,8c-4.4,0-8-3.6-8-8H53c0,13.3,10.7,24,24,24s24-10.7,24-24H85z"/>
	</g>
</g>
<g>
	<g>
		<path class="st0" d="M97,485c-6.6,0-12,5.4-12,12s5.4,12,12,12s12-5.4,12-12C109,490.4,103.6,485,97,485z M97,501
			c-2.2,0-4-1.8-4-4s1.8-4,4-4s4,1.8,4,4C101,499.2,99.2,501,97,501z"/>
	</g>
</g>
<g>
	<g>
		<path class="st0" d="M57,485c-6.6,0-12,5.4-12,12s5.4,12,12,12c6.6,0,12-5.4,12-12C69,490.4,63.6,485,57,485z M57,501
			c-2.2,0-4-1.8-4-4c0-2.2,1.8-4,4-4s4,1.8,4,4S59.2,501,57,501z"/>
	</g>
</g>
<g>
	<g>
		<path class="st0" d="M-155,461C-155,461-155,461-155,461h-96c-4.4,0-8,3.6-8,8c0,0,0,0,0,0v56c0,4.4,3.6,8,8,8c0,0,0,0,0,0h29.1
			l45.8,38.1c3.4,2.8,8.4,2.4,11.3-1c1.6-1.9,2.2-4.3,1.7-6.7l-6.1-30.4h14.2c4.4,0,8-3.6,8-8c0,0,0,0,0,0v-56
			C-147,464.6-150.6,461-155,461z M-163,517h-16c-4.4,0-8,3.6-8,8c0,0.5,0.1,1.1,0.2,1.6l3.6,17.8l-30.6-25.5
			c-1.4-1.2-3.3-1.9-5.1-1.9h-24v-40h80V517z"/>
	</g>
</g>
<g>
	<g>
		<path class="st0" d="M88.2,301h-294.5c-51.2,0.1-92.7,41.6-92.8,92.8v118.5c0.1,51.2,41.6,92.7,92.8,92.8H88.2
			c51.2-0.1,92.7-41.6,92.8-92.8V393.8C180.9,342.6,139.4,301.1,88.2,301z M165,512.2c0,42.4-34.4,76.7-76.8,76.8h-294.5
			c-42.4,0-76.7-34.4-76.8-76.8V393.8c0-42.4,34.4-76.7,76.8-76.8H88.2c42.4,0,76.7,34.4,76.8,76.8L165,512.2L165,512.2z"/>
	</g>
</g>
<g>
	<g>
		<path class="st0" d="M-194.2,333.7c-2.9-0.5-5.8-0.7-8.8-0.7c-23.7,0-44.9,15-52.8,37.4l0,0.1l0,0.1c-1,2.8-1.7,5.7-2.3,8.7
			c-0.1,0.3-0.1,0.6-0.1,0.9c-4.8,30.5,16,59.2,46.6,64s59.2-16,64-46.6S-163.7,338.5-194.2,333.7z M-211.7,428
			c-21.1-4.4-34.7-24.9-30.6-46c18.3,4.1,31.3,20.3,31.3,39C-211,423.3-211.2,425.7-211.7,428z M-195.6,428.3
			c0.4-2.4,0.6-4.8,0.6-7.3c0-25.3-17-47.4-41.4-54c5.8-8.9,15-15.1,25.4-17.2c0.5,26.3,19.2,48.8,45,54
			C-171,416.5-182.2,425.7-195.6,428.3z M-194.9,349.8c18.2,3.8,31.4,19.7,31.8,38.3C-181.3,384.3-194.5,368.4-194.9,349.8z"/>
	</g>
</g>
</svg>
