<?xml version="1.0" encoding="utf-8"?>
<!-- Generator: Adobe Illustrator 19.0.0, SVG Export Plug-In . SVG Version: 6.00 Build 0)  -->
<svg version="1.1" id="Layer_1" xmlns="http://www.w3.org/2000/svg" xmlns:xlink="http://www.w3.org/1999/xlink" x="0px" y="0px"
	 viewBox="-284 285 511 511" style="enable-background:new -284 285 511 511;" xml:space="preserve">
<style type="text/css">
	.st0{fill:#FFFFFF;}
</style>
<path class="st0" d="M213,482.9l-61.4-6.3c-2.2-6.3-4.8-12.4-7.6-18.4l39-47.9c5-6.1,4.5-14.9-1-20.5l-60-60c-5.6-5.6-14.4-6-20.5-1
	l-40.2,32.8c-4.6,3.7-10.9,4.6-16.6,2.2l-0.4-0.1c-5.6-2.3-9.5-7.4-10.1-13.3l-5.3-51.6C28.1,291,21.5,285,13.7,285h-84.8
	c-7.9,0-14.4,5.9-15.2,13.8l-5.3,51.6c-0.6,5.9-4.5,11-10.1,13.3l-0.3,0.1c-5.6,2.3-12,1.5-16.6-2.2l-40.2-32.8
	c-6.1-5-14.9-4.5-20.5,1l-60,60c-5.6,5.6-6,14.4-1,20.5l32.8,40.2c3.7,4.6,4.6,10.9,2.3,16.6l-0.2,0.4c-2.3,5.6-7.4,9.5-13.3,10.1
	l-51.6,5.3c-7.8,0.8-13.7,7.4-13.7,15.2v84.8c0,7.9,5.9,14.4,13.7,15.2l51.6,5.3c5.9,0.6,11,4.5,13.3,10.1l0.2,0.4
	c2.3,5.6,1.5,12-2.3,16.6l-32.8,40.2c-5,6.1-4.5,14.9,1,20.5l60,60c5.6,5.6,14.4,6,20.5,1l40.2-32.8c4.6-3.7,10.9-4.6,16.6-2.3
	l0.4,0.2c5.6,2.3,9.5,7.4,10.1,13.3l5.3,51.6C-85.4,790-78.8,796-71,796h84.8c7.8,0,14.4-5.9,15.2-13.8l5.3-51.6
	c0.6-5.9,4.5-11,10.1-13.3l0.4-0.1c5.6-2.4,12-1.5,16.6,2.2l40.2,32.8c6.1,5,14.9,4.5,20.5-1l60-60c5.5-5.6,6-14.4,1-20.5
	l-32.8-40.2c-3.7-4.6-4.6-10.9-2.2-16.6l0.1-0.4c2.3-5.6,7.4-9.5,13.3-10.1l51.6-5.3c7.8-0.8,13.7-7.4,13.7-15.2v-84.8
	C226.8,490.2,220.9,483.7,213,482.9z M-28.7,662.8C-96.1,662.8-151,608-151,540.5s54.8-122.3,122.3-122.3S93.6,473.1,93.6,540.5
	S38.7,662.8-28.7,662.8z"/>
<path class="st0" d="M-28.7,448.8c-50.5,0-91.7,41.1-91.7,91.7s41.1,91.7,91.7,91.7S63,591.1,63,540.5S21.8,448.8-28.7,448.8z
	 M25.2,523.8l-55,55c-3,3-6.9,4.5-10.8,4.5s-7.8-1.5-10.8-4.5l-31-31c-6-6-6-15.7,0-21.6c6-6,15.7-6,21.6,0l20.2,20.2l44.2-44.2
	c6-6,15.7-6,21.6,0S31.1,517.8,25.2,523.8z"/>
</svg>
