<?xml version="1.0" encoding="utf-8"?>
<!-- Generator: Adobe Illustrator 19.0.0, SVG Export Plug-In . SVG Version: 6.00 Build 0)  -->
<svg version="1.1" id="Capa_1" xmlns="http://www.w3.org/2000/svg" xmlns:xlink="http://www.w3.org/1999/xlink" x="0px" y="0px"
	 viewBox="-391 393.1 295.9 295.9" style="enable-background:new -391 393.1 295.9 295.9;" xml:space="preserve">
<style type="text/css">
	.st0{fill:#FFFFFF;}
</style>
<g>
	<path class="st0" d="M-197.3,461.8c-3.9,3.9-3.9,10.2,0,14.1c26.3,26.3,26.3,69.1,0,95.4c-3.9,3.9-3.9,10.2,0,14.1
		c2,2,4.5,2.9,7.1,2.9c2.6,0,5.1-1,7.1-2.9c34.1-34.1,34.1-89.6,0-123.7C-187.1,457.9-193.4,457.9-197.3,461.8z"/>
	<path class="st0" d="M-234.7,490.5c-3.9,3.9-3.9,10.2,0,14.1c10.5,10.5,10.5,27.5,0,38c-3.9,3.9-3.9,10.2,0,14.1
		c2,2,4.5,2.9,7.1,2.9c2.6,0,5.1-1,7.1-2.9c18.3-18.3,18.3-48,0-66.3C-224.5,486.6-230.8,486.6-234.7,490.5z"/>
	<path class="st0" d="M-138.9,417.5c-3.9-3.9-10.2-3.9-14.1,0s-3.9,10.2,0,14.1c50.7,50.7,50.6,133.2-0.1,184
		c-3.9,3.9-3.9,10.2,0,14.1c2,2,4.5,2.9,7.1,2.9c2.6,0,5.1-1,7.1-2.9C-80.5,571.2-80.4,476-138.9,417.5z"/>
	<path class="st0" d="M-318.2,588.2c25.7-1.8,46.1-23.3,46.1-49.4c0-27.3-22.2-49.6-49.5-49.6c-27.3,0-49.5,22.2-49.5,49.6
		c0,26.2,20.4,47.7,46.1,49.4c-19.3,0.7-36.2,7.7-48,19.8c-12.1,12.4-18.3,29.6-17.8,49.7c0.1,5.4,4.6,9.8,10,9.8h118.6
		c5.4,0,9.9-4.3,10-9.8c0.5-20.1-5.7-37.3-17.8-49.8C-282.1,595.9-299,588.9-318.2,588.2z"/>
</g>
</svg>
