<svg width="200" height="63" viewBox="0 0 200 63" fill="none" xmlns="http://www.w3.org/2000/svg">
<path d="M76.5898 26V10.3594H81.9502C83.7191 10.3594 85.0654 10.7139 85.9893 11.4229C86.9131 12.1318 87.375 13.1882 87.375 14.5918C87.375 15.3079 87.1816 15.9525 86.7949 16.5254C86.4082 17.0983 85.8424 17.5423 85.0977 17.8574C85.9427 18.0866 86.5944 18.5199 87.0527 19.1572C87.5182 19.7874 87.751 20.5465 87.751 21.4346C87.751 22.9027 87.2783 24.0306 86.333 24.8184C85.3949 25.6061 84.0485 26 82.2939 26H76.5898ZM79.3076 18.9424V23.8301H82.3262C83.1784 23.8301 83.8444 23.6188 84.3242 23.1963C84.804 22.7738 85.0439 22.1865 85.0439 21.4346C85.0439 19.8089 84.2132 18.9782 82.5518 18.9424H79.3076ZM79.3076 16.9443H81.9717C82.8167 16.9443 83.4756 16.7546 83.9482 16.375C84.4281 15.9883 84.668 15.444 84.668 14.7422C84.668 13.9688 84.446 13.4102 84.002 13.0664C83.5651 12.7227 82.8812 12.5508 81.9502 12.5508H79.3076V16.9443ZM96.2158 19.9736H93.1865V26H90.4688V10.3594H95.9688C97.7734 10.3594 99.1663 10.764 100.147 11.5732C101.129 12.3825 101.619 13.5534 101.619 15.0859C101.619 16.1315 101.365 17.0088 100.856 17.7178C100.355 18.4196 99.6533 18.9603 98.751 19.3398L102.264 25.8604V26H99.3525L96.2158 19.9736ZM93.1865 17.793H95.9795C96.8962 17.793 97.6123 17.5638 98.1279 17.1055C98.6436 16.64 98.9014 16.0062 98.9014 15.2041C98.9014 14.3662 98.6615 13.7181 98.1816 13.2598C97.709 12.8014 97 12.5651 96.0547 12.5508H93.1865V17.793ZM112.952 22.3584H106.894L105.626 26H102.801L108.709 10.3594H111.147L117.066 26H114.23L112.952 22.3584ZM107.656 20.167H112.189L109.923 13.6787L107.656 20.167ZM130.688 22.1328L133.094 10.3594H135.79L132.181 26H129.581L126.605 14.5811L123.565 26H120.955L117.346 10.3594H120.042L122.47 22.1113L125.456 10.3594H127.733L130.688 22.1328ZM140.646 26H137.938V10.3594H140.646V26ZM150.389 10.3594H153.096V21.3271C153.096 22.8239 152.627 24.0127 151.688 24.8936C150.757 25.7744 149.526 26.2148 147.993 26.2148C146.36 26.2148 145.1 25.8031 144.212 24.9795C143.324 24.1559 142.88 23.0101 142.88 21.542H145.587C145.587 22.3727 145.791 22.9993 146.199 23.4219C146.615 23.8372 147.213 24.0449 147.993 24.0449C148.724 24.0449 149.304 23.805 149.733 23.3252C150.17 22.8382 150.389 22.1686 150.389 21.3164V10.3594ZM164.729 22.3584H158.671L157.403 26H154.578L160.486 10.3594H162.925L168.844 26H166.008L164.729 22.3584ZM159.434 20.167H163.967L161.7 13.6787L159.434 20.167ZM174.118 17.7715L177.717 10.3594H180.725L175.482 20.2422V26H172.754V20.2422L167.501 10.3594H170.52L174.118 17.7715ZM189.565 22.3584H183.507L182.239 26H179.414L185.322 10.3594H187.761L193.68 26H190.844L189.565 22.3584ZM184.27 20.167H188.803L186.536 13.6787L184.27 20.167Z" fill="black"/>
<path d="M84.7646 47.9717C84.7646 47.2842 84.5212 46.7542 84.0342 46.3818C83.5544 46.0094 82.6842 45.6335 81.4238 45.2539C80.1634 44.8743 79.1608 44.4518 78.416 43.9863C76.9909 43.0911 76.2783 41.9238 76.2783 40.4844C76.2783 39.224 76.7904 38.1855 77.8145 37.3691C78.8457 36.5527 80.1813 36.1445 81.8213 36.1445C82.9098 36.1445 83.8802 36.3451 84.7324 36.7461C85.5846 37.1471 86.2542 37.7201 86.7412 38.4648C87.2282 39.2025 87.4717 40.0225 87.4717 40.9248H84.7646C84.7646 40.1084 84.5068 39.471 83.9912 39.0127C83.4827 38.5472 82.7523 38.3145 81.7998 38.3145C80.9118 38.3145 80.2207 38.5042 79.7266 38.8838C79.2396 39.2633 78.9961 39.7933 78.9961 40.4736C78.9961 41.0465 79.2611 41.5264 79.791 41.9131C80.321 42.2926 81.1947 42.665 82.4121 43.0303C83.6296 43.3883 84.6071 43.8001 85.3447 44.2656C86.0824 44.724 86.623 45.2539 86.9668 45.8555C87.3105 46.4499 87.4824 47.1481 87.4824 47.9502C87.4824 49.2536 86.9811 50.292 85.9785 51.0654C84.9831 51.8317 83.6296 52.2148 81.918 52.2148C80.7865 52.2148 79.7445 52.0072 78.792 51.5918C77.8467 51.1693 77.109 50.5892 76.5791 49.8516C76.0563 49.1139 75.7949 48.2546 75.7949 47.2734H78.5127C78.5127 48.1615 78.8063 48.849 79.3936 49.3359C79.9808 49.8229 80.8223 50.0664 81.918 50.0664C82.8633 50.0664 83.5723 49.8766 84.0449 49.4971C84.5247 49.1104 84.7646 48.6019 84.7646 47.9717ZM98.6221 48.3584H92.5635L91.2959 52H88.4707L94.3789 36.3594H96.8174L102.736 52H99.9004L98.6221 48.3584ZM93.3262 46.167H97.8594L95.5928 39.6787L93.3262 46.167ZM108.043 36.3594L112.555 48.3477L117.056 36.3594H120.568V52H117.861V46.8438L118.13 39.9473L113.511 52H111.566L106.958 39.958L107.227 46.8438V52H104.52V36.3594H108.043ZM123.791 52V36.3594H129.151C130.92 36.3594 132.267 36.7139 133.19 37.4229C134.114 38.1318 134.576 39.1882 134.576 40.5918C134.576 41.3079 134.383 41.9525 133.996 42.5254C133.609 43.0983 133.044 43.5423 132.299 43.8574C133.144 44.0866 133.796 44.5199 134.254 45.1572C134.719 45.7874 134.952 46.5465 134.952 47.4346C134.952 48.9027 134.479 50.0306 133.534 50.8184C132.596 51.6061 131.25 52 129.495 52H123.791ZM126.509 44.9424V49.8301H129.527C130.38 49.8301 131.046 49.6188 131.525 49.1963C132.005 48.7738 132.245 48.1865 132.245 47.4346C132.245 45.8089 131.414 44.9782 129.753 44.9424H126.509ZM126.509 42.9443H129.173C130.018 42.9443 130.677 42.7546 131.149 42.375C131.629 41.9883 131.869 41.444 131.869 40.7422C131.869 39.9688 131.647 39.4102 131.203 39.0664C130.766 38.7227 130.082 38.5508 129.151 38.5508H126.509V42.9443ZM146.425 48.3584H140.366L139.099 52H136.273L142.182 36.3594H144.62L150.539 52H147.703L146.425 48.3584ZM141.129 46.167H145.662L143.396 39.6787L141.129 46.167ZM162.334 38.5508H157.457V52H154.761V38.5508H149.927V36.3594H162.334V38.5508Z" fill="#AB4040"/>
<g clip-path="url(#clip0)">
<path d="M45.5083 47.6034L32.4542 43.9777V40.8382L35.205 41.6636L36.6582 41.7061C39.9314 41.7061 42.5941 39.0434 42.5941 35.7703C42.5941 35.1662 42.7372 34.5627 43.007 34.0225L44.2359 31.5633C45.5781 31.5004 46.65 30.3884 46.65 29.0313C46.65 28.4872 46.4708 27.9475 46.143 27.5103L45.7648 27.0063C44.3735 25.1521 43.6081 22.8543 43.6081 20.5352C43.6081 19.4717 43.3392 18.4503 42.8397 17.5452L43.1753 17.2096C45.4162 14.9687 46.65 11.9896 46.65 8.8199C46.65 6.26959 45.8073 3.74056 44.2775 1.70021L42.9986 0L42.3455 0.163386C37.0454 1.4883 31.5477 2.16066 26.0044 2.16066H25.4474C16.4517 2.16066 9.13252 9.47988 9.13252 18.476C9.13252 21.2422 9.84251 23.9817 11.2303 26.4721L14.7703 31.7336C15.8027 33.266 16.6221 34.934 17.2068 36.6892C17.9044 38.782 18.2584 40.961 18.2584 43.1662V43.9777L5.20432 47.6034C2.14404 48.4545 0.0066452 51.2662 0.0066452 54.4429V62.9999H50.706V54.4429C50.706 51.2662 48.5686 48.4545 45.5083 47.6034V47.6034ZM31.6155 45.8492L32.3497 46.0532L30.8481 52.0609L27.0476 48.8947L31.6155 45.8492ZM44.1423 28.2233L44.5196 28.7263C44.5864 28.8154 44.622 28.9209 44.622 29.0313C44.622 29.3115 44.3948 29.5383 44.1151 29.5383H42.9813L41.1939 33.115C40.783 33.9339 40.5661 34.8528 40.5661 35.7703C40.5661 37.925 38.8129 39.6782 36.6582 39.6782H35.6452L25.6474 36.6788L25.0652 38.6216L30.4262 40.2297V44.206L25.3563 47.5856L20.2864 44.206V43.1662C20.2864 42.2042 20.2072 41.2482 20.0859 40.299L20.4597 39.9247C22.9634 37.421 24.3423 34.0923 24.3423 30.5523V29.5383H22.3143C21.1959 29.5383 20.2864 28.6288 20.2864 27.5103C20.2864 26.3919 21.1959 25.4824 22.3143 25.4824H24.3423V23.1524C24.3423 21.615 24.8706 20.1074 25.8311 18.9068C27.1288 17.2863 29.0627 16.3565 31.1382 16.3565H37.4014C38.5178 16.3565 39.5675 16.7917 40.3562 17.5804C41.1454 18.3696 41.5801 19.4197 41.5801 20.5352C41.5801 23.2905 42.4896 26.02 44.1423 28.2233V28.2233ZM19.0971 45.8492L23.665 48.8947L19.8645 52.0609L18.3629 46.0532L19.0971 45.8492ZM16.4527 30.6023L12.9582 25.4135C11.7824 23.2974 11.1605 20.8981 11.1605 18.476C11.1605 10.5983 17.5702 4.18864 25.4474 4.18864H26.0044C31.5001 4.18864 36.9533 3.54697 42.1856 2.29038L42.655 2.91719C43.9234 4.60948 44.622 6.70528 44.622 8.8199C44.622 11.447 43.5992 13.9171 41.7415 15.7757L41.5702 15.947C40.425 14.9048 38.959 14.3285 37.4014 14.3285H31.1382C28.4428 14.3285 25.9321 15.5351 24.2482 17.6403C23.0011 19.1989 22.3143 21.1556 22.3143 23.1524V23.4544C20.0774 23.4544 18.2584 25.2734 18.2584 27.5103C18.2584 29.7319 20.0542 31.542 22.2698 31.5663C22.0638 33.8814 21.1513 36.048 19.6417 37.8195C19.4957 37.2234 19.3264 36.6323 19.1313 36.048C18.4886 34.1186 17.586 32.2862 16.4527 30.6023V30.6023ZM48.678 60.9719H2.03462V54.4429C2.03462 52.1748 3.56154 50.1651 5.74795 49.5576L16.4082 46.5968L18.6812 55.6871L25.3563 50.1245L32.0314 55.6881L34.3049 46.5978L44.9647 49.5586C47.1511 50.1651 48.678 52.1738 48.678 54.4429V60.9719Z" fill="url(#paint0_linear)"/>
<path d="M58.7147 21.5289L57.2809 22.9627C59.5797 25.2605 60.8452 28.3164 60.8452 31.5663C60.8452 34.8162 59.5797 37.8725 57.2809 40.1703L58.7147 41.6037C61.3968 38.9231 62.8732 35.3588 62.8732 31.5663C62.8732 27.7742 61.3968 24.2099 58.7147 21.5289V21.5289Z" fill="url(#paint1_linear)"/>
<path d="M55.8476 24.3966L54.4137 25.8304C55.9456 27.3623 56.7893 29.3997 56.7893 31.5663C56.7893 33.7334 55.9456 35.7703 54.4137 37.3026L55.8476 38.7365C57.7617 36.8219 58.8172 34.2745 58.8172 31.5663C58.8172 28.858 57.7617 26.3112 55.8476 24.3966Z" fill="url(#paint2_linear)"/>
<path d="M52.9799 27.2643L51.546 28.6976C52.3115 29.4645 52.7333 30.4835 52.7333 31.5663C52.7333 32.6496 52.3115 33.6685 51.546 34.4349L52.9799 35.8688C54.1285 34.7191 54.7613 33.1917 54.7613 31.5663C54.7613 29.9408 54.1285 28.4139 52.9799 27.2643Z" fill="url(#paint3_linear)"/>
</g>
<defs>
<linearGradient id="paint0_linear" x1="25.3563" y1="0" x2="25.3563" y2="62.9999" gradientUnits="userSpaceOnUse">
<stop stop-color="#AB4040"/>
<stop offset="0.0001" stop-color="#AB4040" stop-opacity="0.989583"/>
<stop offset="0.588542" stop-color="#3E0E0E"/>
<stop offset="0.9999" stop-color="#AB4040" stop-opacity="0"/>
<stop offset="1" stop-color="#0E0101" stop-opacity="0"/>
</linearGradient>
<linearGradient id="paint1_linear" x1="60.077" y1="21.5289" x2="60.077" y2="41.6037" gradientUnits="userSpaceOnUse">
<stop stop-color="#AB4040"/>
<stop offset="0.0001" stop-color="#AB4040" stop-opacity="0.989583"/>
<stop offset="0.588542" stop-color="#3E0E0E"/>
<stop offset="0.9999" stop-color="#AB4040" stop-opacity="0"/>
<stop offset="1" stop-color="#0E0101" stop-opacity="0"/>
</linearGradient>
<linearGradient id="paint2_linear" x1="56.6155" y1="24.3966" x2="56.6155" y2="38.7365" gradientUnits="userSpaceOnUse">
<stop stop-color="#AB4040"/>
<stop offset="0.0001" stop-color="#AB4040" stop-opacity="0.989583"/>
<stop offset="0.588542" stop-color="#3E0E0E"/>
<stop offset="0.9999" stop-color="#AB4040" stop-opacity="0"/>
<stop offset="1" stop-color="#0E0101" stop-opacity="0"/>
</linearGradient>
<linearGradient id="paint3_linear" x1="53.1537" y1="27.2643" x2="53.1537" y2="35.8688" gradientUnits="userSpaceOnUse">
<stop stop-color="#AB4040"/>
<stop offset="0.0001" stop-color="#AB4040" stop-opacity="0.989583"/>
<stop offset="0.588542" stop-color="#3E0E0E"/>
<stop offset="0.9999" stop-color="#AB4040" stop-opacity="0"/>
<stop offset="1" stop-color="#0E0101" stop-opacity="0"/>
</linearGradient>
<clipPath id="clip0">
<rect width="63" height="63" fill="white"/>
</clipPath>
</defs>
</svg>
